<?xml version="1.0" encoding="UTF-8"?>
<svg width="128px" height="128px" viewBox="0 0 128 128" version="1.1" xmlns="http://www.w3.org/2000/svg" xmlns:xlink="http://www.w3.org/1999/xlink">
    <!-- Generator: Sketch 46.2 (44496) - http://www.bohemiancoding.com/sketch -->
    <title>Artboard</title>
    <desc>Created with Sketch.</desc>
    <defs></defs>
    <g id="Page-1" stroke="none" stroke-width="1" fill="none" fill-rule="evenodd">
        <g id="Artboard" fill="#8D9BAC">
            <g id="evasmomlogo" transform="translate(16.000000, 17.000000)">
                <g id="EvasMom">
                    <g id="Page-1">
                        <g id="Sign-up-2">
                            <g id="EvasMom">
                                <g id="EvaLogo">
                                    <path d="M95.9654524,110.695143 C93.3699265,92.0051385 88.436227,77.7092825 75.9817671,70.1839846 L70.8567469,96.9279445 L59.5468239,96.9279445 L50.1788895,118.7304 C66.3852638,118.533216 82.4900518,116.10241 96.0619591,111.386988 L95.9654524,110.695143 Z" id="Shape"></path>
                                    <path d="M75.5551053,70.1788849 L75.9648362,70.1737852 C75.8717154,70.1176899 75.7701294,70.0700935 75.6736225,70.015698 C77.0094801,68.1356485 78.1709482,66.1213095 79.0801441,63.9692817 L84.9958433,63.9692817 C87.992634,63.9692817 90.5712287,62.8762692 92.6639029,60.7242414 C94.7565774,58.5722136 95.7825972,55.954423 95.709794,52.9473636 C95.0122358,24.3862488 74.4867577,0.258379327 48.0489671,0.258379327 C21.6128693,0.258379327 1.08739138,24.3862488 0.391526376,52.9473636 C0.317029879,55.9561228 1.34304981,58.5722136 3.43403102,60.7242414 C5.52839844,62.877969 8.10699308,63.9692817 11.103784,63.9692817 L17.0211762,63.9692817 C17.9320651,66.1247094 19.0952263,68.1424477 20.4327771,70.025897 C7.86318638,77.4390039 2.78726599,91.6345681 0.188354113,110.348371 L0.0427473216,111.388688 C13.3826995,116.022517 29.1657982,118.444823 45.0911175,118.716801 L36.3276204,94.4648419 L25.534094,94.7844163 L20.7713975,70.8792288 L21.0643042,70.8758292 C26.859793,78.4793206 35.9619106,83.412326 46.2136442,83.412326 L49.8859829,83.412326 C60.4458615,83.412326 69.7917854,78.1784449 75.5551053,70.1788849 Z M49.8876761,80.0125981 L46.2153374,80.0125981 C30.6100144,80.0125981 17.9151341,67.2653179 17.9151341,51.5976716 L17.9151341,22.021738 C21.0084318,24.0632747 24.6977015,25.271878 28.6747986,25.271878 C37.7007265,25.271878 45.2858243,19.1523676 47.5884432,10.8264338 C49.6421763,19.5144386 57.3999703,25.9875207 66.6832497,25.9875207 C70.9854224,25.9875207 74.9540541,24.5868328 78.1878791,22.234221 L78.1878791,51.5976716 C78.1878791,67.2653179 65.4929988,80.0125981 49.8876761,80.0125981 Z" id="Shape"></path>
                                    <path d="M33.1869159,36.8462518 C31.4718034,36.8462518 30.0749941,38.2503394 30.0749941,39.9723016 C30.0749941,41.6942638 31.4718034,43.0983517 33.1869159,43.0983517 C34.9020284,43.0983517 36.3005308,41.6942638 36.3005308,39.9723016 C36.3005308,38.2503394 34.9020284,36.8462518 33.1869159,36.8462518 Z" id="Shape"></path>
                                    <path d="M62.992287,37.031537 C61.2788677,37.031537 59.8803652,38.4356246 59.8803652,40.1575868 C59.8803652,41.879549 61.2788677,43.2836369 62.992287,43.2836369 C64.7090927,43.2836369 66.1075951,41.879549 66.1075951,40.1575868 C66.1075951,38.4356246 64.7090927,37.031537 62.992287,37.031537 Z" id="Shape"></path>
                                    <path d="M55.5290925,61.4483833 C50.6309479,64.2378601 45.9986204,64.2463594 41.3679858,61.4670819 C40.560376,60.9860204 39.5258904,61.2477993 39.0467428,62.0552348 C38.5675948,62.8609705 38.8300255,63.9046867 39.632556,64.3857483 C42.48374,66.0958117 45.3874102,66.9508432 48.3300218,66.9508432 C51.2607819,66.9508432 54.2237108,66.1026112 57.2001846,64.404447 C58.0128734,63.9420837 58.3007007,62.9034672 57.838484,62.0892322 C57.3779601,61.2715977 56.3400885,60.9826208 55.5290925,61.4483833 Z" id="Shape"></path>
                                    <path d="M62.9330285,28.7345009 C57.5895978,28.7345009 53.0724014,32.3722099 51.7162264,37.3120146 C49.1918111,36.2750975 46.8739542,36.2988955 44.5560972,37.4004076 C43.2287051,32.4147064 38.6911913,28.7345009 33.3138985,28.7345009 C26.8987344,28.7345009 21.6789003,33.9751815 21.6789003,40.4159662 C21.6789003,46.8567509 26.8987344,52.0974315 33.3138985,52.0974315 C39.5038802,52.0974315 44.5814939,47.2171222 44.9285796,41.0874126 C47.0720471,39.6374284 48.8752008,39.5728338 51.3048027,40.8630303 C51.5435299,47.0981317 56.665164,52.0957317 62.9313353,52.0957317 C69.3464995,52.0957317 74.5680267,46.8550511 74.5680267,40.4142664 C74.5680267,33.9734817 69.3481927,28.7345009 62.9330285,28.7345009 Z M33.3138985,48.6977035 C28.764533,48.6977035 25.0651047,44.9818008 25.0651047,40.4159662 C25.0651047,35.8501316 28.7662261,32.1342289 33.3138985,32.1342289 C37.8615712,32.1342289 41.5626926,35.8501316 41.5626926,40.4159662 C41.5626926,44.9818008 37.8632641,48.6977035 33.3138985,48.6977035 Z M62.9330285,48.6977035 C58.3853558,48.6977035 54.6859276,44.9818008 54.6859276,40.4159662 C54.6859276,40.2867767 54.6893137,40.1592869 54.6927001,40.0317968 C54.6960863,39.9927001 54.6994724,39.9536033 54.6994724,39.9162063 C54.956824,35.5815531 58.5512798,32.1342289 62.9330285,32.1342289 C67.4840871,32.1342289 71.1835156,35.8501316 71.1835156,40.4159662 C71.1835156,44.9818008 67.4840871,48.6977035 62.9330285,48.6977035 Z" id="Shape"></path>
                                </g>
                            </g>
                        </g>
                    </g>
                </g>
            </g>
        </g>
    </g>
</svg>