<?xml version="1.0" encoding="UTF-8"?>
<svg width="160px" height="160px" viewBox="0 0 160 160" version="1.1" xmlns="http://www.w3.org/2000/svg" xmlns:xlink="http://www.w3.org/1999/xlink" style="background: #A5B0BD;">
    <!-- Generator: Sketch 46.2 (44496) - http://www.bohemiancoding.com/sketch -->
    <title>Artboard</title>
    <desc>Created with Sketch.</desc>
    <defs></defs>
    <g id="Page-1" stroke="none" stroke-width="1" fill="none" fill-rule="evenodd">
        <g id="Desktop-Copy-11" transform="translate(-653.000000, -153.000000)"></g>
        <g id="Artboard" fill-rule="nonzero" fill="#8D9BAC">
            <g id="school-book-bag" transform="translate(43.000000, 33.000000)">
                <path d="M13.8502467,66.6252928 L59.7154447,66.6252928 L59.7154447,79.6790878 L13.8502467,79.6790878 L13.8502467,66.6252928 Z M73.493997,10.1744954 L68.2749626,31.5953012 C70.2977272,35.9675362 71.4391848,40.8242709 71.4481393,45.9420346 L71.5169472,85.478062 C71.5207175,87.7259156 70.6455372,89.8413769 69.0530578,91.4338413 C67.4596358,93.0263057 65.3393147,93.9056352 63.0827917,93.909391 L10.5813987,94 C10.5799848,94 10.5682027,94 10.5667888,94 C5.91659811,94 2.12603524,90.2305729 2.11755207,85.598248 L2.04921543,46.0622206 C2.04026097,40.9317811 3.14967101,35.972231 5.25632475,31.4535193 L0.0712230908,10.1744954 C-0.198353182,9.06746977 0.314407281,7.91772174 1.32013414,7.37500687 L9.99228972,2.6947953 C10.6798977,2.32343937 11.5013513,2.29198444 12.2158227,2.60794214 C12.9302941,2.92436933 13.4571931,3.55299841 13.6419377,4.31026406 L16.893348,17.654665 C18.4415265,16.5739301 20.0698237,15.6307517 21.7593883,14.8218436 L21.7593883,13.053795 C21.758917,5.8557808 27.6372821,0 34.8630573,0 L38.7021628,0 C45.9279379,0 51.8063031,5.8557808 51.8063031,13.053795 L51.8063031,14.8805282 C53.5024657,15.7002342 55.1255787,16.6485768 56.655377,17.7208612 L59.922811,4.31026406 C60.1075556,3.55299841 60.6339834,2.92436933 61.3489261,2.60794214 C62.0633975,2.29151496 62.8843797,2.32343937 63.572459,2.6947953 L72.2446146,7.37500687 C73.2508128,7.91819122 73.7635732,9.06746977 73.493997,10.1744954 Z M26.8078167,12.8786803 C29.9734527,11.9378493 33.2917858,11.4416126 36.6883526,11.4359789 L36.7500912,11.4359789 C40.2296045,11.4359789 43.5884683,11.9570978 46.7597598,12.9143605 C46.6838826,8.54963715 43.1016287,5.02105153 38.702634,5.02105153 L34.8635286,5.02105153 C30.4758449,5.02058205 26.9025454,8.53038862 26.8078167,12.8786803 Z M64.7553899,64.1150018 C64.7553899,62.7286376 63.6271284,61.6047107 62.2354173,61.6047107 L11.3302741,61.6047107 C9.93856298,61.6047107 8.81030145,62.7286376 8.81030145,64.1150018 L8.81030145,82.1898483 C8.81030145,83.5762125 9.93856298,84.7001393 11.3302741,84.7001393 L62.2354173,84.7001393 C63.6271284,84.7001393 64.7553899,83.5762125 64.7553899,82.1898483 L64.7553899,64.1150018 Z M64.7553899,47.2133771 C64.7553899,31.8483491 52.2068972,19.3480669 36.78261,19.3480669 C21.3583229,19.3480669 8.80983016,31.8483491 8.80983016,47.2133771 C8.80983016,48.5997413 9.9380917,49.7236681 11.3298028,49.7236681 C12.7215138,49.7236681 13.8497754,48.5997413 13.8497754,47.2133771 C13.8497754,34.6168522 24.1370322,24.3691184 36.7821387,24.3691184 C49.4272453,24.3691184 59.7145021,34.6168522 59.7145021,47.2133771 C59.7145021,48.5997413 60.8427636,49.7236681 62.2344747,49.7236681 C63.6261858,49.7236681 64.7553899,48.5997413 64.7553899,47.2133771 Z" id="Shape"></path>
            </g>
        </g>
    </g>
</svg>