<?xml version="1.0" encoding="iso-8859-1"?>
<!-- Generator: Adobe Illustrator 19.0.0, SVG Export Plug-In . SVG Version: 6.00 Build 0)  -->
<svg version="1.1" id="Capa_1" xmlns="http://www.w3.org/2000/svg" xmlns:xlink="http://www.w3.org/1999/xlink" x="0px" y="0px"
	 viewBox="0 0 511.653 511.653" style="enable-background:new 0 0 511.653 511.653;" xml:space="preserve">
<g>
	<rect x="3.997" y="363.757" style="fill:#D7E9FF;" width="367.75" height="79.946"/>
	<polygon style="fill:#D7E9FF;" points="371.749,427.71 67.951,427.71 3.997,363.753 3.997,155.895 371.749,155.895 	"/>
</g>
<rect x="3.997" y="83.947" style="fill:#5C9EFF;" width="367.75" height="71.951"/>
<path style="fill:#D7E9FF;" d="M67.953,51.966c-4.415,0-7.994,3.58-7.994,7.995v47.967c0,4.415,3.58,7.994,7.994,7.994
	c4.415,0,7.995-3.579,7.995-7.994V59.96C75.95,55.545,72.368,51.966,67.953,51.966z"/>
<path style="fill:#94C1FF;" d="M67.953,107.928c-4.415,0-7.994-3.58-7.994-7.995v7.995c0,4.415,3.58,7.994,7.994,7.994
	c4.415,0,7.995-3.579,7.995-7.994v-7.995C75.95,104.348,72.368,107.928,67.953,107.928z"/>
<g>
	<path style="fill:#D7E9FF;" d="M147.9,51.966c-4.415,0-7.995,3.58-7.995,7.995v47.967c0,4.415,3.58,7.994,7.995,7.994
		s7.995-3.579,7.995-7.994V59.96C155.895,55.545,152.315,51.966,147.9,51.966z"/>
	<path style="fill:#D7E9FF;" d="M227.846,51.966c-4.415,0-7.995,3.58-7.995,7.995v47.967c0,4.415,3.58,7.994,7.995,7.994
		s7.994-3.579,7.994-7.994V59.96C235.84,55.545,232.261,51.966,227.846,51.966z"/>
	<path style="fill:#D7E9FF;" d="M307.792,51.966c-4.42,0-7.994,3.58-7.994,7.995v47.967c0,4.415,3.574,7.994,7.994,7.994
		c4.418,0,7.994-3.579,7.994-7.994V59.96C315.786,55.545,312.21,51.966,307.792,51.966z"/>
</g>
<g>
	<path style="fill:#94C1FF;" d="M147.9,107.928c-4.415,0-7.995-3.58-7.995-7.995v7.995c0,4.415,3.58,7.994,7.995,7.994
		s7.995-3.579,7.995-7.994v-7.995C155.895,104.348,152.315,107.928,147.9,107.928z"/>
	<path style="fill:#94C1FF;" d="M227.846,107.928c-4.415,0-7.995-3.58-7.995-7.995v7.995c0,4.415,3.58,7.994,7.995,7.994
		s7.994-3.579,7.994-7.994v-7.995C235.84,104.348,232.261,107.928,227.846,107.928z"/>
	<path style="fill:#94C1FF;" d="M307.792,107.928c-4.42,0-7.994-3.58-7.994-7.995v7.995c0,4.415,3.574,7.994,7.994,7.994
		c4.418,0,7.994-3.579,7.994-7.994v-7.995C315.786,104.348,312.21,107.928,307.792,107.928z"/>
</g>
<g>
	<path style="fill:#FFFFFF;" d="M307.792,59.96c4.418,0,7.994,3.58,7.994,7.995V59.96c0-4.415-3.576-7.995-7.994-7.995
		c-4.412,0-7.994,3.58-7.994,7.995v7.995C299.798,63.54,303.38,59.96,307.792,59.96z"/>
	<path style="fill:#FFFFFF;" d="M227.846,59.96c4.415,0,7.994,3.58,7.994,7.995V59.96c0-4.415-3.579-7.995-7.994-7.995
		s-7.995,3.58-7.995,7.995v7.995C219.851,63.54,223.431,59.96,227.846,59.96z"/>
	<path style="fill:#FFFFFF;" d="M147.9,59.96c4.415,0,7.995,3.58,7.995,7.995V59.96c0-4.415-3.58-7.995-7.995-7.995
		s-7.995,3.58-7.995,7.995v7.995C139.906,63.54,143.486,59.96,147.9,59.96z"/>
	<path style="fill:#FFFFFF;" d="M67.953,59.96c4.419,0,7.995,3.58,7.995,7.995V59.96c0-4.415-3.576-7.995-7.995-7.995
		c-4.418,0-7.994,3.58-7.994,7.995v7.995C59.959,63.54,63.535,59.96,67.953,59.96z"/>
	<polygon style="fill:#FFFFFF;" points="67.953,427.71 67.953,363.753 3.997,363.753 	"/>
</g>
<rect x="3.997" y="443.697" style="fill:#D7E9FF;" width="379.74" height="15.989"/>
<g>
	<rect x="171.887" y="179.877" style="fill:#FFFFFF;" width="31.978" height="31.978"/>
	<rect x="219.847" y="179.877" style="fill:#FFFFFF;" width="31.978" height="31.978"/>
	<rect x="267.816" y="179.877" style="fill:#FFFFFF;" width="31.979" height="31.978"/>
	<rect x="27.986" y="227.847" style="fill:#FFFFFF;" width="31.979" height="31.979"/>
	<rect x="75.947" y="227.847" style="fill:#FFFFFF;" width="31.978" height="31.979"/>
	<rect x="123.916" y="227.847" style="fill:#FFFFFF;" width="31.979" height="31.979"/>
	<rect x="171.887" y="227.847" style="fill:#FFFFFF;" width="31.978" height="31.979"/>
	<rect x="219.847" y="227.847" style="fill:#FFFFFF;" width="31.978" height="31.979"/>
	<rect x="267.816" y="227.847" style="fill:#FFFFFF;" width="31.979" height="31.979"/>
	<rect x="28.313" y="275.817" style="fill:#FFFFFF;" width="31.979" height="31.979"/>
	<rect x="27.986" y="323.777" style="fill:#FFFFFF;" width="31.979" height="31.979"/>
	<rect x="75.947" y="323.777" style="fill:#FFFFFF;" width="31.978" height="31.979"/>
	<rect x="124.246" y="323.777" style="fill:#FFFFFF;" width="31.979" height="31.979"/>
	<rect x="172.217" y="323.777" style="fill:#FFFFFF;" width="31.978" height="31.979"/>
	<rect x="220.187" y="323.777" style="fill:#FFFFFF;" width="31.979" height="31.979"/>
	<rect x="220.187" y="371.747" style="fill:#FFFFFF;" width="31.979" height="31.979"/>
	<rect x="172.217" y="371.747" style="fill:#FFFFFF;" width="31.978" height="31.979"/>
	<rect x="123.916" y="371.747" style="fill:#FFFFFF;" width="31.979" height="31.979"/>
	<rect x="75.947" y="371.747" style="fill:#FFFFFF;" width="31.978" height="31.979"/>
	<rect x="76.276" y="275.817" style="fill:#FFFFFF;" width="31.978" height="31.979"/>
	<rect x="124.246" y="275.817" style="fill:#FFFFFF;" width="31.979" height="31.979"/>
</g>
<g style="opacity:0.2;">
	<rect x="363.757" y="83.947" style="fill:#3A3847;" width="7.996" height="71.951"/>
</g>
<rect x="3.997" y="155.897" style="fill:#94C1FF;" width="350.76" height="7.995"/>
<g>
	<rect x="172.217" y="275.817" style="fill:#FFFFFF;" width="31.978" height="31.979"/>
	<rect x="220.187" y="275.817" style="fill:#FFFFFF;" width="31.979" height="31.979"/>
</g>
<path style="fill:#94C1FF;" d="M443.698,179.879c0,0,63.957,68.273,63.957,155.894c0,68.516-55.4,123.916-123.916,123.916
	s-123.914-55.4-123.914-123.916c0-135.985,135.906-211.855,135.906-211.855s-18.307,45.57,0,63.956
	C414.117,206.181,443.698,179.879,443.698,179.879z"/>
<path style="fill:#5C9EFF;" d="M443.698,179.879c0,0-3.98,3.528-9.914,7.097c15.957,19.596,57.883,77.838,57.883,148.797
	c0,65.814-51.16,119.38-115.922,123.51c2.654,0.172,5.293,0.406,7.994,0.406c68.516,0,123.916-55.4,123.916-123.916
	C507.655,248.152,443.698,179.879,443.698,179.879z"/>
<path style="fill:#D7E9FF;" d="M275.813,335.772c0-102.902,77.791-171.348,115.656-198.576c2.1-7.827,4.262-13.28,4.262-13.28
	s-135.906,75.87-135.906,211.855c0,68.516,55.398,123.916,123.914,123.916c2.701,0,5.342-0.234,7.996-0.406
	C326.973,455.152,275.813,401.587,275.813,335.772z"/>
<path style="fill:#FFFFFF;" d="M491.667,335.772c0,59.607-48.318,107.927-107.928,107.927c-59.607,0-107.926-48.319-107.926-107.927
	s48.318-107.927,107.926-107.927C443.348,227.846,491.667,276.165,491.667,335.772z"/>
<g style="opacity:0.5;">
	<path style="fill:#FFFFFF;" d="M475.677,335.772c0,56.906-44.07,103.414-99.932,107.521c2.646,0.195,5.293,0.406,7.994,0.406
		c59.609,0,107.928-48.319,107.928-107.927s-48.318-107.927-107.928-107.927c-2.701,0-5.348,0.211-7.994,0.406
		C431.605,232.358,475.677,278.866,475.677,335.772z"/>
</g>
<g>
	<rect x="3.997" y="355.757" style="fill:#94C1FF;" width="71.951" height="7.994"/>
	<rect x="67.956" y="363.757" style="fill:#94C1FF;" width="7.995" height="63.957"/>
</g>
<g style="opacity:0.3;">
	<rect x="3.997" y="83.947" style="fill:#FFFFFF;" width="7.994" height="71.951"/>
</g>
<rect x="3.997" y="163.887" style="fill:#FFFFFF;" width="7.994" height="191.87"/>
<g>
	<path style="fill:#116FFF;" d="M275.813,431.707H67.953c-2.209,0-3.997-1.788-3.997-3.997s1.788-3.997,3.997-3.997h207.859
		c2.209,0,3.998,1.788,3.998,3.997S278.022,431.707,275.813,431.707z"/>
	<path style="fill:#116FFF;" d="M3.997,367.751c-2.209,0-3.997-1.788-3.997-3.998V83.944c0-2.21,1.788-3.998,3.997-3.998
		s3.997,1.788,3.997,3.998v279.809C7.995,365.963,6.207,367.751,3.997,367.751z"/>
	<path style="fill:#116FFF;" d="M43.971,87.941H3.997c-2.209,0-3.997-1.788-3.997-3.997c0-2.21,1.788-3.998,3.997-3.998h39.973
		c2.209,0,3.997,1.788,3.997,3.998C47.967,86.153,46.181,87.941,43.971,87.941z"/>
	<path style="fill:#116FFF;" d="M371.749,87.941h-39.975c-2.209,0-3.996-1.788-3.996-3.997c0-2.21,1.787-3.998,3.996-3.998h39.975
		c2.209,0,3.996,1.788,3.996,3.998C375.745,86.153,373.958,87.941,371.749,87.941z"/>
	<path style="fill:#116FFF;" d="M371.749,119.919c-2.211,0-3.998-1.788-3.998-3.998V83.944c0-2.21,1.787-3.998,3.998-3.998
		c2.209,0,3.996,1.788,3.996,3.998v31.978C375.745,118.132,373.958,119.919,371.749,119.919z"/>
	<path style="fill:#116FFF;" d="M323.78,159.892H3.997c-2.209,0-3.997-1.788-3.997-3.998s1.788-3.998,3.997-3.998H323.78
		c2.211,0,3.998,1.788,3.998,3.998S325.991,159.892,323.78,159.892z"/>
	<path style="fill:#116FFF;" d="M203.862,215.854h-31.978c-2.209,0-3.997-1.788-3.997-3.998v-31.978c0-2.21,1.788-3.998,3.997-3.998
		h31.978c2.209,0,3.998,1.788,3.998,3.998v31.978C207.86,214.066,206.072,215.854,203.862,215.854z M175.881,207.859h23.983v-23.983
		h-23.983V207.859z"/>
	<path style="fill:#116FFF;" d="M251.833,215.854h-31.982c-2.209,0-3.998-1.788-3.998-3.998v-31.978c0-2.21,1.788-3.998,3.998-3.998
		h31.982c2.209,0,3.997,1.788,3.997,3.998v31.978C255.829,214.066,254.043,215.854,251.833,215.854z M223.848,207.859h23.988
		v-23.983h-23.988V207.859z"/>
	<path style="fill:#116FFF;" d="M267.819,215.854c-2.209,0-3.998-1.788-3.998-3.998v-31.978c0-2.21,1.789-3.998,3.998-3.998h31.979
		c2.209,0,3.996,1.788,3.996,3.998c0,2.209-1.787,3.997-3.996,3.997h-27.982v27.981
		C271.815,214.066,270.027,215.854,267.819,215.854z"/>
	<path style="fill:#116FFF;" d="M59.959,263.821H27.982c-2.209,0-3.997-1.787-3.997-3.997v-31.979c0-2.209,1.788-3.997,3.997-3.997
		h31.979c2.209,0,3.997,1.788,3.997,3.997v31.979C63.956,262.034,62.168,263.821,59.959,263.821z M31.979,255.827h23.984v-23.984
		H31.979V255.827z"/>
	<path style="fill:#116FFF;" d="M107.927,263.821H75.95c-2.21,0-3.998-1.787-3.998-3.997v-31.979c0-2.209,1.788-3.997,3.998-3.997
		h31.978c2.209,0,3.998,1.788,3.998,3.997v31.979C111.924,262.034,110.136,263.821,107.927,263.821z M79.947,255.827h23.983v-23.984
		H79.947V255.827z"/>
	<path style="fill:#116FFF;" d="M155.895,263.821h-31.979c-2.209,0-3.997-1.787-3.997-3.997v-31.979
		c0-2.209,1.788-3.997,3.997-3.997h31.979c2.209,0,3.997,1.788,3.997,3.997v31.979C159.892,262.034,158.104,263.821,155.895,263.821
		z M127.914,255.827h23.984v-23.984h-23.984V255.827z"/>
	<path style="fill:#116FFF;" d="M203.862,263.821h-31.978c-2.209,0-3.997-1.787-3.997-3.997v-31.979
		c0-2.209,1.788-3.997,3.997-3.997h31.978c2.209,0,3.998,1.788,3.998,3.997v31.979C207.86,262.034,206.072,263.821,203.862,263.821z
		 M175.881,255.827h23.983v-23.984h-23.983V255.827z"/>
	<path style="fill:#116FFF;" d="M251.833,263.821h-31.982c-2.209,0-3.998-1.787-3.998-3.997v-31.979
		c0-2.209,1.788-3.997,3.998-3.997h31.982c2.209,0,3.997,1.788,3.997,3.997v31.979C255.829,262.034,254.043,263.821,251.833,263.821
		z M223.848,255.827h23.988v-23.984h-23.988V255.827z"/>
	<path style="fill:#116FFF;" d="M267.819,239.838c-2.209,0-3.998-1.788-3.998-3.997v-7.995c0-2.209,1.789-3.997,3.998-3.997
		s3.996,1.788,3.996,3.997v7.995C271.815,238.05,270.027,239.838,267.819,239.838z"/>
	<path style="fill:#116FFF;" d="M59.959,311.789H27.982c-2.209,0-3.997-1.788-3.997-3.997v-31.979c0-2.209,1.788-3.997,3.997-3.997
		h31.979c2.209,0,3.997,1.788,3.997,3.997v31.979C63.956,310.001,62.168,311.789,59.959,311.789z M31.979,303.794h23.984v-23.983
		H31.979V303.794z"/>
	<path style="fill:#116FFF;" d="M107.927,311.789H75.95c-2.21,0-3.998-1.788-3.998-3.997v-31.979c0-2.209,1.788-3.997,3.998-3.997
		h31.978c2.209,0,3.998,1.788,3.998,3.997v31.979C111.924,310.001,110.136,311.789,107.927,311.789z M79.947,303.794h23.983v-23.983
		H79.947V303.794z"/>
	<path style="fill:#116FFF;" d="M155.895,311.789h-31.979c-2.209,0-3.997-1.788-3.997-3.997v-31.979
		c0-2.209,1.788-3.997,3.997-3.997h31.979c2.209,0,3.997,1.788,3.997,3.997v31.979C159.892,310.001,158.104,311.789,155.895,311.789
		z M127.914,303.794h23.984v-23.983h-23.984V303.794z"/>
	<path style="fill:#116FFF;" d="M203.862,311.789h-31.978c-2.209,0-3.997-1.788-3.997-3.997v-31.979
		c0-2.209,1.788-3.997,3.997-3.997h31.978c2.209,0,3.998,1.788,3.998,3.997v31.979C207.86,310.001,206.072,311.789,203.862,311.789z
		 M175.881,303.794h23.983v-23.983h-23.983V303.794z"/>
	<path style="fill:#116FFF;" d="M219.851,311.789c-2.209,0-3.998-1.788-3.998-3.997v-31.979c0-2.209,1.788-3.997,3.998-3.997h31.982
		c2.209,0,3.997,1.788,3.997,3.997s-1.788,3.997-3.997,3.997h-27.985v27.981C223.848,310.001,222.061,311.789,219.851,311.789z"/>
	<path style="fill:#116FFF;" d="M155.895,359.756h-31.979c-2.209,0-3.997-1.788-3.997-3.997V323.78c0-2.209,1.788-3.997,3.997-3.997
		h31.979c2.209,0,3.997,1.788,3.997,3.997v31.979C159.892,357.968,158.104,359.756,155.895,359.756z M127.914,351.762h23.984
		v-23.983h-23.984V351.762z"/>
	<path style="fill:#116FFF;" d="M203.862,359.756h-31.978c-2.209,0-3.997-1.788-3.997-3.997V323.78c0-2.209,1.788-3.997,3.997-3.997
		h31.978c2.209,0,3.998,1.788,3.998,3.997v31.979C207.86,357.968,206.072,359.756,203.862,359.756z M175.881,351.762h23.983v-23.983
		h-23.983V351.762z"/>
	<path style="fill:#116FFF;" d="M243.839,359.756H219.85c-2.209,0-3.998-1.788-3.998-3.997V323.78c0-2.209,1.788-3.997,3.998-3.997
		h23.988c2.209,0,3.997,1.788,3.997,3.997c0,2.21-1.788,3.998-3.997,3.998h-19.991v23.983h19.991c2.209,0,3.997,1.788,3.997,3.997
		S246.048,359.756,243.839,359.756z"/>
	<path style="fill:#116FFF;" d="M155.895,407.723h-31.979c-2.209,0-3.997-1.788-3.997-3.997v-31.979c0-2.21,1.788-3.997,3.997-3.997
		h31.979c2.209,0,3.997,1.787,3.997,3.997v31.979C159.892,405.935,158.104,407.723,155.895,407.723z M127.914,399.729h23.984
		v-23.984h-23.984V399.729z"/>
	<path style="fill:#116FFF;" d="M203.862,407.723h-31.978c-2.209,0-3.997-1.788-3.997-3.997v-31.979c0-2.21,1.788-3.997,3.997-3.997
		h31.978c2.209,0,3.998,1.787,3.998,3.997v31.979C207.86,405.935,206.072,407.723,203.862,407.723z M175.881,399.729h23.983v-23.984
		h-23.983V399.729z"/>
	<path style="fill:#116FFF;" d="M251.833,407.723h-31.982c-2.209,0-3.998-1.788-3.998-3.997v-31.979c0-2.21,1.788-3.997,3.998-3.997
		s3.997,1.787,3.997,3.997v27.981h27.985c2.209,0,3.997,1.787,3.997,3.997S254.043,407.723,251.833,407.723z"/>
	<path style="fill:#116FFF;" d="M291.802,447.696H3.997c-2.209,0-3.997-1.788-3.997-3.997c0-2.21,1.788-3.997,3.997-3.997h287.803
		c2.211,0,3.998,1.787,3.998,3.997C295.799,445.908,294.013,447.696,291.802,447.696z"/>
	<path style="fill:#116FFF;" d="M315.786,463.685H3.997c-2.209,0-3.997-1.788-3.997-3.997c0-2.21,1.788-3.998,3.997-3.998h311.788
		c2.209,0,3.998,1.788,3.998,3.998C319.784,461.897,317.995,463.685,315.786,463.685z"/>
	<path style="fill:#116FFF;" d="M67.953,431.707c-1.022,0-2.045-0.39-2.826-1.171L1.171,366.579c-1.562-1.561-1.562-4.09,0-5.652
		c1.562-1.561,4.091-1.561,5.652,0l63.956,63.957c1.562,1.562,1.562,4.091,0,5.652C69.999,431.317,68.977,431.707,67.953,431.707z"
		/>
	<path style="fill:#116FFF;" d="M67.953,431.707c-2.209,0-3.997-1.788-3.997-3.997v-63.957c0-2.209,1.788-3.997,3.997-3.997
		c2.21,0,3.998,1.788,3.998,3.997v63.957C71.951,429.919,70.163,431.707,67.953,431.707z"/>
	<path style="fill:#116FFF;" d="M67.953,367.751H3.997c-2.209,0-3.997-1.788-3.997-3.998c0-2.209,1.788-3.997,3.997-3.997h63.956
		c2.21,0,3.998,1.788,3.998,3.997C71.951,365.963,70.163,367.751,67.953,367.751z"/>
	<path style="fill:#116FFF;" d="M3.997,447.696c-2.209,0-3.997-1.788-3.997-3.997v-57.625c0-2.21,1.788-3.997,3.997-3.997
		s3.997,1.787,3.997,3.997v57.625C7.995,445.908,6.207,447.696,3.997,447.696z"/>
	<path style="fill:#116FFF;" d="M59.959,327.778H27.982c-2.209,0-3.997-1.788-3.997-3.998c0-2.209,1.788-3.997,3.997-3.997h31.979
		c2.209,0,3.997,1.788,3.997,3.997C63.956,325.99,62.168,327.778,59.959,327.778z"/>
	<path style="fill:#116FFF;" d="M59.959,351.762c-2.209,0-3.997-1.788-3.997-3.997v-23.984c0-2.209,1.788-3.997,3.997-3.997
		c2.209,0,3.997,1.788,3.997,3.997v23.984C63.956,349.973,62.168,351.762,59.959,351.762z"/>
	<path style="fill:#116FFF;" d="M27.982,351.762c-2.209,0-3.997-1.788-3.997-3.997v-23.984c0-2.209,1.788-3.997,3.997-3.997
		c2.21,0,3.998,1.788,3.998,3.997v23.984C31.979,349.973,30.191,351.762,27.982,351.762z"/>
	<path style="fill:#116FFF;" d="M75.95,351.762c-2.21,0-3.998-1.788-3.998-3.997v-23.984c0-2.209,1.788-3.997,3.998-3.997
		c2.209,0,3.997,1.788,3.997,3.997v23.984C79.947,349.973,78.159,351.762,75.95,351.762z"/>
	<path style="fill:#116FFF;" d="M107.927,327.778H75.95c-2.21,0-3.998-1.788-3.998-3.998c0-2.209,1.788-3.997,3.998-3.997h31.978
		c2.209,0,3.998,1.788,3.998,3.997C111.924,325.99,110.136,327.778,107.927,327.778z"/>
	<path style="fill:#116FFF;" d="M107.927,359.756c-2.209,0-3.998-1.788-3.998-3.997V323.78c0-2.209,1.788-3.997,3.998-3.997
		s3.998,1.788,3.998,3.997v31.979C111.924,357.968,110.136,359.756,107.927,359.756z"/>
	<path style="fill:#116FFF;" d="M107.927,359.756H83.943c-2.209,0-3.997-1.788-3.997-3.997s1.788-3.997,3.997-3.997h23.984
		c2.209,0,3.998,1.788,3.998,3.997S110.136,359.756,107.927,359.756z"/>
	<path style="fill:#116FFF;" d="M107.927,407.723c-2.209,0-3.998-1.788-3.998-3.997v-31.979c0-2.21,1.788-3.997,3.998-3.997
		s3.998,1.787,3.998,3.997v31.979C111.924,405.935,110.136,407.723,107.927,407.723z"/>
	<path style="fill:#116FFF;" d="M107.927,407.723H83.943c-2.209,0-3.997-1.788-3.997-3.997c0-2.21,1.788-3.997,3.997-3.997h23.984
		c2.209,0,3.998,1.787,3.998,3.997C111.924,405.935,110.136,407.723,107.927,407.723z"/>
	<path style="fill:#116FFF;" d="M107.927,375.745H83.943c-2.209,0-3.997-1.787-3.997-3.997s1.788-3.997,3.997-3.997h23.984
		c2.209,0,3.998,1.787,3.998,3.997S110.136,375.745,107.927,375.745z"/>
	<path style="fill:#116FFF;" d="M55.963,143.903H31.979c-2.209,0-3.998-1.788-3.998-3.997c0-2.21,1.788-3.998,3.998-3.998h23.984
		c2.209,0,3.997,1.788,3.997,3.998C59.959,142.115,58.172,143.903,55.963,143.903z"/>
	<path style="fill:#116FFF;" d="M103.929,143.903H79.947c-2.209,0-3.997-1.788-3.997-3.997c0-2.21,1.788-3.998,3.997-3.998h23.983
		c2.21,0,3.998,1.788,3.998,3.998C107.927,142.115,106.14,143.903,103.929,143.903z"/>
	<path style="fill:#116FFF;" d="M151.898,143.903h-23.984c-2.209,0-3.998-1.788-3.998-3.997c0-2.21,1.788-3.998,3.998-3.998h23.984
		c2.209,0,3.997,1.788,3.997,3.998C155.895,142.115,154.107,143.903,151.898,143.903z"/>
	<path style="fill:#116FFF;" d="M199.865,143.903h-23.983c-2.209,0-3.997-1.788-3.997-3.997c0-2.21,1.788-3.998,3.997-3.998h23.983
		c2.21,0,3.998,1.788,3.998,3.998C203.862,142.115,202.075,143.903,199.865,143.903z"/>
	<path style="fill:#116FFF;" d="M247.836,143.903h-23.984c-2.209,0-3.997-1.788-3.997-3.997c0-2.21,1.788-3.998,3.997-3.998h23.984
		c2.209,0,3.997,1.788,3.997,3.998C251.833,142.115,250.045,143.903,247.836,143.903z"/>
	<path style="fill:#116FFF;" d="M295.799,143.903h-23.984c-2.209,0-3.996-1.788-3.996-3.997c0-2.21,1.787-3.998,3.996-3.998h23.984
		c2.209,0,3.998,1.788,3.998,3.998C299.798,142.115,298.009,143.903,295.799,143.903z"/>
	<path style="fill:#116FFF;" d="M343.766,143.903h-23.982c-2.211,0-3.998-1.788-3.998-3.997c0-2.21,1.787-3.998,3.998-3.998h23.982
		c2.211,0,3.998,1.788,3.998,3.998C347.764,142.115,345.977,143.903,343.766,143.903z"/>
	<path style="fill:#116FFF;" d="M67.953,119.919c-6.612,0-11.991-5.379-11.991-11.992V59.96c0-6.613,5.379-11.992,11.991-11.992
		c6.613,0,11.992,5.379,11.992,11.992v47.967C79.947,114.54,74.567,119.919,67.953,119.919z M67.953,55.963
		c-2.205,0-3.997,1.792-3.997,3.998v47.967c0,2.206,1.792,3.997,3.997,3.997c2.206,0,3.998-1.792,3.998-3.997V59.96
		C71.951,57.755,70.16,55.963,67.953,55.963z"/>
	<path style="fill:#116FFF;" d="M147.9,119.919c-6.613,0-11.992-5.379-11.992-11.992V59.96c0-6.613,5.379-11.992,11.992-11.992
		s11.992,5.379,11.992,11.992v47.967C159.892,114.54,154.513,119.919,147.9,119.919z M147.9,55.963
		c-2.206,0-3.998,1.792-3.998,3.998v47.967c0,2.206,1.792,3.997,3.998,3.997s3.998-1.792,3.998-3.997V59.96
		C151.898,57.755,150.106,55.963,147.9,55.963z"/>
	<path style="fill:#116FFF;" d="M227.85,119.919c-6.613,0-11.996-5.379-11.996-11.992V59.96c0-6.613,5.383-11.992,11.996-11.992
		c6.612,0,11.992,5.379,11.992,11.992v47.967C239.842,114.54,234.462,119.919,227.85,119.919z M227.85,55.963
		c-2.206,0-4.001,1.792-4.001,3.998v47.967c0,2.206,1.795,3.997,4.001,3.997c2.205,0,3.997-1.792,3.997-3.997V59.96
		C231.847,57.755,230.055,55.963,227.85,55.963z"/>
	<path style="fill:#116FFF;" d="M307.792,119.919c-6.613,0-11.992-5.379-11.992-11.992V59.96c0-6.613,5.379-11.992,11.992-11.992
		s11.992,5.379,11.992,11.992v47.967C319.784,114.54,314.405,119.919,307.792,119.919z M307.792,55.963
		c-2.201,0-3.998,1.792-3.998,3.998v47.967c0,2.206,1.797,3.997,3.998,3.997s3.996-1.792,3.996-3.997V59.96
		C311.788,57.755,309.992,55.963,307.792,55.963z"/>
	<path style="fill:#116FFF;" d="M123.915,87.941H91.938c-2.209,0-3.998-1.788-3.998-3.997c0-2.21,1.788-3.998,3.998-3.998h31.978
		c2.21,0,3.998,1.788,3.998,3.998C127.914,86.153,126.126,87.941,123.915,87.941z"/>
	<path style="fill:#116FFF;" d="M203.862,87.941h-31.978c-2.209,0-3.997-1.788-3.997-3.997c0-2.21,1.788-3.998,3.997-3.998h31.978
		c2.209,0,3.998,1.788,3.998,3.998C207.86,86.153,206.072,87.941,203.862,87.941z"/>
	<path style="fill:#116FFF;" d="M283.807,87.941h-31.974c-2.209,0-3.997-1.788-3.997-3.997c0-2.21,1.788-3.998,3.997-3.998h31.974
		c2.209,0,3.998,1.788,3.998,3.998C287.806,86.153,286.016,87.941,283.807,87.941z"/>
	<path style="fill:#116FFF;" d="M383.738,463.685c-2.209,0-3.996-1.788-3.996-3.997c0-2.21,1.787-3.998,3.996-3.998
		c66.127,0,119.92-53.791,119.92-119.918c0-2.209,1.787-3.997,3.996-3.997s3.998,1.788,3.998,3.997
		C511.652,406.303,454.27,463.685,383.738,463.685z"/>
	<path style="fill:#116FFF;" d="M383.738,463.685c-70.529,0-127.912-57.382-127.912-127.913c0-2.209,1.788-3.997,3.999-3.997
		c2.209,0,3.996,1.788,3.996,3.997c0,66.127,53.791,119.918,119.918,119.918c2.211,0,3.998,1.788,3.998,3.998
		C387.737,461.897,385.949,463.685,383.738,463.685z"/>
	<path style="fill:#116FFF;" d="M507.655,339.769c-2.209,0-3.996-1.788-3.996-3.997c0-75.301-48.787-136.79-60.42-150.37
		c-8.611,6.604-33.088,22.484-50.326,5.305c-14.287-14.346-8.979-42.147-4.52-57.5c-30.34,20.037-124.572,91.255-124.572,202.565
		c0,2.209-1.787,3.997-3.996,3.997c-2.211,0-3.999-1.788-3.999-3.997c0-136.75,136.579-214.576,137.954-215.346
		c1.475-0.815,3.318-0.624,4.59,0.488c1.273,1.12,1.703,2.92,1.07,4.489c-0.172,0.433-17.105,43.345-0.875,59.646
		c15.521,15.466,42.205-7.916,42.479-8.158c1.609-1.444,4.092-1.331,5.574,0.254c2.656,2.834,65.035,70.44,65.035,158.626
		C511.652,337.981,509.863,339.769,507.655,339.769z"/>
	<path style="fill:#116FFF;" d="M383.98,247.832c-2.209,0-4.035-1.788-4.035-3.998c0-2.209,1.748-3.997,3.949-3.997h0.086
		c2.203,0,3.998,1.788,3.998,3.997C387.979,246.045,386.184,247.832,383.98,247.832z"/>
	<path style="fill:#116FFF;" d="M383.98,431.707c-2.209,0-4.035-1.788-4.035-3.997s1.748-3.997,3.949-3.997h0.086
		c2.203,0,3.998,1.788,3.998,3.997S386.184,431.707,383.98,431.707z"/>
	<path style="fill:#116FFF;" d="M338.013,260.152c-2.209,0-4.035-1.788-4.035-3.998c0-2.21,1.748-3.998,3.949-3.998h0.086
		c2.203,0,3.998,1.788,3.998,3.998C342.01,258.364,340.216,260.152,338.013,260.152z"/>
	<path style="fill:#116FFF;" d="M429.949,419.388c-2.209,0-4.035-1.788-4.035-3.998c0-2.209,1.748-3.997,3.949-3.997h0.086
		c2.201,0,3.998,1.788,3.998,3.997C433.948,417.599,432.151,419.388,429.949,419.388z"/>
	<path style="fill:#116FFF;" d="M304.348,293.801c-2.209,0-4.037-1.788-4.037-3.997s1.75-3.997,3.951-3.997h0.086
		c2.201,0,3.998,1.788,3.998,3.997S306.549,293.801,304.348,293.801z"/>
	<path style="fill:#116FFF;" d="M463.6,385.738c-2.211,0-4.037-1.788-4.037-3.997s1.748-3.997,3.951-3.997h0.086
		c2.201,0,3.996,1.788,3.996,3.997S465.802,385.738,463.6,385.738z"/>
	<path style="fill:#116FFF;" d="M292.027,339.769c-2.209,0-4.035-1.788-4.035-3.997s1.748-3.997,3.949-3.997h0.086
		c2.203,0,3.998,1.788,3.998,3.997S294.23,339.769,292.027,339.769z"/>
	<path style="fill:#116FFF;" d="M475.902,339.769c-2.209,0-4.035-1.788-4.035-3.997s1.748-3.997,3.949-3.997h0.086
		c2.201,0,3.998,1.788,3.998,3.997S478.104,339.769,475.902,339.769z"/>
	<path style="fill:#116FFF;" d="M304.333,385.746c-2.209,0-4.037-1.788-4.037-3.997s1.75-3.997,3.951-3.997h0.086
		c2.201,0,3.998,1.788,3.998,3.997S306.534,385.746,304.333,385.746z"/>
	<path style="fill:#116FFF;" d="M463.585,293.801c-2.211,0-4.037-1.788-4.037-3.997s1.748-3.997,3.951-3.997h0.086
		c2.201,0,3.996,1.788,3.996,3.997S465.786,293.801,463.585,293.801z"/>
	<path style="fill:#116FFF;" d="M337.997,419.403c-2.209,0-4.035-1.788-4.035-3.998c0-2.209,1.748-3.997,3.949-3.997h0.086
		c2.203,0,3.998,1.788,3.998,3.997C341.995,417.615,340.199,419.403,337.997,419.403z"/>
	<path style="fill:#116FFF;" d="M429.934,260.16c-2.209,0-4.035-1.788-4.035-3.998c0-2.21,1.748-3.998,3.949-3.998h0.086
		c2.203,0,3.998,1.788,3.998,3.998C433.931,258.372,432.138,260.16,429.934,260.16z"/>
	<path style="fill:#116FFF;" d="M383.738,447.696c-61.715,0-111.924-50.208-111.924-111.924s50.209-111.924,111.924-111.924
		c61.717,0,111.924,50.208,111.924,111.924S445.456,447.696,383.738,447.696z M383.738,231.843
		c-57.305,0-103.928,46.625-103.928,103.929s46.623,103.93,103.928,103.93s103.93-46.625,103.93-103.93
		S441.044,231.843,383.738,231.843z"/>
	<path style="fill:#116FFF;" d="M383.738,339.769c-2.209,0-3.996-1.788-3.996-3.997v-67.953c0-2.21,1.787-3.998,3.996-3.998
		c2.211,0,3.998,1.788,3.998,3.998v67.953C387.737,337.981,385.949,339.769,383.738,339.769z"/>
	<path style="fill:#116FFF;" d="M427.71,383.739c-1.023,0-2.045-0.39-2.826-1.17l-43.971-43.971c-1.561-1.562-1.561-4.091,0-5.652
		c1.562-1.562,4.092-1.562,5.652,0l43.971,43.971c1.562,1.561,1.562,4.09,0,5.652C429.755,383.349,428.733,383.739,427.71,383.739z"
		/>
	<path style="fill:#116FFF;" d="M243.839,311.789H219.85c-2.209,0-3.998-1.788-3.998-3.997c0-2.21,1.788-3.998,3.998-3.998h23.988
		c2.209,0,3.997,1.788,3.997,3.998C247.836,310.001,246.048,311.789,243.839,311.789z"/>
	<path style="fill:#116FFF;" d="M299.798,191.87c-2.211,0-3.998-1.788-3.998-3.998v-7.994c0-2.21,1.787-3.998,3.998-3.998
		c2.209,0,3.996,1.788,3.996,3.998v7.994C303.794,190.083,302.007,191.87,299.798,191.87z"/>
	<path style="fill:#116FFF;" d="M275.813,215.854h-7.994c-2.209,0-3.998-1.788-3.998-3.998s1.789-3.998,3.998-3.998h7.994
		c2.209,0,3.998,1.788,3.998,3.998S278.022,215.854,275.813,215.854z"/>
	<path style="fill:#116FFF;" d="M251.833,407.723c-2.209,0-3.997-1.788-3.997-3.997v-15.989c0-2.209,1.788-3.998,3.997-3.998
		s3.997,1.789,3.997,3.998v15.989C255.829,405.935,254.043,407.723,251.833,407.723z"/>
	<path style="fill:#116FFF;" d="M243.839,375.745H219.85c-2.209,0-3.998-1.787-3.998-3.997s1.788-3.997,3.998-3.997h23.988
		c2.209,0,3.997,1.787,3.997,3.997S246.048,375.745,243.839,375.745z"/>
</g>
<g>
</g>
<g>
</g>
<g>
</g>
<g>
</g>
<g>
</g>
<g>
</g>
<g>
</g>
<g>
</g>
<g>
</g>
<g>
</g>
<g>
</g>
<g>
</g>
<g>
</g>
<g>
</g>
<g>
</g>
</svg>
