<?xml version="1.0" encoding="UTF-8"?>
<svg width="238px" height="192px" viewBox="0 0 238 192" version="1.1" xmlns="http://www.w3.org/2000/svg" xmlns:xlink="http://www.w3.org/1999/xlink">
    <!-- Generator: Sketch 46.2 (44496) - http://www.bohemiancoding.com/sketch -->
    <title>Group 4</title>
    <desc>Created with Sketch.</desc>
    <defs></defs>
    <g id="Page-1" stroke="none" stroke-width="1" fill="none" fill-rule="evenodd">
        <g id="Group-4">
            <polygon id="Shape" fill="#94C1FF" fill-rule="nonzero" points="86.8870096 15.633832 83.1093998 2 49.1109116 2 45.3333018 15.633832 34 15.633832 34 27 204 27 204 15.633832"></polygon>
            <rect id="Rectangle-3" fill="#94C1FF" x="38" y="26" width="162" height="16"></rect>
            <polygon id="Shape" fill="#94C1FF" fill-rule="nonzero" points="204.647532 154 34.3529412 154 23 40 216 40"></polygon>
            <polygon id="Shape" fill="#D7E9FF" fill-rule="nonzero" points="23 40 34.399905 154 42 154 30.600095 40"></polygon>
            <polygon id="Shape" fill="#5C9EFF" fill-rule="nonzero" points="196 154 207.40019 40 215 40 203.600285 154"></polygon>
            <rect id="Rectangle-path" fill="#FFFFFF" fill-rule="nonzero" x="0" y="188" width="87" height="4"></rect>
            <rect id="Rectangle-path" fill="#FFFFFF" fill-rule="nonzero" x="151" y="188" width="87" height="4"></rect>
            <rect id="Rectangle-path" fill="#D7E9FF" fill-rule="nonzero" x="34" y="14" width="4" height="25"></rect>
            <rect id="Rectangle-path" fill="#5C9EFF" fill-rule="nonzero" x="200" y="14" width="4" height="25"></rect>
            <g id="Group" transform="translate(20.000000, 0.000000)" fill-rule="nonzero" fill="#116FFF">
                <path d="M183.984066,155.68306 L13.905332,155.68306 C12.8612344,155.68306 12.0156523,154.836074 12.0156523,153.790242 C12.0156523,152.743464 12.8612344,151.897425 13.905332,151.897425 L183.984066,151.897425 C185.028637,151.897425 185.873746,152.743464 185.873746,153.790242 C185.873746,154.836074 185.028637,155.68306 183.984066,155.68306 Z" id="Shape"></path>
                <path d="M13.9034414,155.68306 C12.9439492,155.68306 12.1224727,154.954434 12.0246328,153.978672 L0.686554687,40.4048845 C0.583042969,39.3661547 1.33976562,38.4382102 2.37913672,38.3345266 C3.45159375,38.2199538 4.34444141,38.9888222 4.44795312,40.0280254 L15.7865039,153.601813 C15.8900156,154.640069 15.133293,155.568487 14.0939219,155.672171 C14.029168,155.679273 13.9663047,155.68306 13.9034414,155.68306 Z" id="Shape"></path>
                <path d="M183.984066,155.68306 C183.924984,155.68306 183.85834,155.679273 183.795949,155.672171 C182.758941,155.568487 181.998438,154.640069 182.101949,153.601813 L193.440027,40.0280254 C193.54732,38.9892956 194.451512,38.2161663 195.510734,38.3345266 C196.547742,38.4382102 197.308246,39.3661547 197.204734,40.4048845 L185.866184,153.979145 C185.766453,154.954434 184.943559,155.68306 183.984066,155.68306 Z" id="Shape"></path>
                <path d="M195.322145,42.1092725 L2.56678125,42.1092725 C1.52268359,42.1092725 0.677101562,41.2622864 0.677101562,40.2159815 C0.677101562,39.1701501 1.52268359,38.323164 2.56678125,38.323164 L195.322145,38.323164 C196.367188,38.323164 197.211824,39.1701501 197.211824,40.2159815 C197.211824,41.2627598 196.367188,42.1092725 195.322145,42.1092725 Z" id="Shape"></path>
                <polygon id="Shape" points="12.0156523 38.6558932 12.0156523 14 15.7954844 14 15.7954844 38.6558932"></polygon>
                <path d="M183,38.6558932 L183,11.8232448 L184.779359,11.8232448 L184.779359,11.8232448 C185.883929,11.8232448 186.779359,12.7186753 186.779359,13.8232448 L186.779359,38.6558932 L183,38.6558932 Z" id="Shape"></path>
                <path d="M183.984066,15.6084065 L66.8187266,15.6084065 C66.0048125,15.6084065 65.2830664,15.0871478 65.0268867,14.3144919 L61.6752813,4.25102771 L30.3854375,4.25102771 L27.0357227,14.3144919 C26.779543,15.0871478 26.0577969,15.6084065 25.2438828,15.6084065 L13.905332,15.6084065 C12.8612344,15.6084065 12.0156523,14.7618938 12.0156523,13.7155889 C12.0156523,12.6692841 12.8612344,11.8227714 13.905332,11.8227714 L23.8821602,11.8227714 L27.2314023,1.75930716 C27.4880547,0.98665127 28.2093281,0.46539261 29.0232422,0.46539261 L63.0374766,0.46539261 C63.8513906,0.46539261 64.5726641,0.98665127 64.8293164,1.75930716 L68.1804492,11.8227714 L183.983594,11.8227714 C185.028164,11.8227714 185.873273,12.6692841 185.873273,13.7155889 C185.873273,14.7618938 185.028637,15.6084065 183.984066,15.6084065 Z" id="Shape"></path>
            </g>
        </g>
    </g>
</svg>