<?xml version="1.0" encoding="UTF-8"?>
<svg width="135px" height="156px" viewBox="0 0 135 156" version="1.1" xmlns="http://www.w3.org/2000/svg" xmlns:xlink="http://www.w3.org/1999/xlink">
    <!-- Generator: Sketch 46.2 (44496) - http://www.bohemiancoding.com/sketch -->
    <title>Artboard</title>
    <desc>Created with Sketch.</desc>
    <defs></defs>
    <g id="Page-1" stroke="none" stroke-width="1" fill="none" fill-rule="evenodd">
        <g id="Artboard">
            <g id="Group-3" transform="translate(11.000000, 9.000000)">
                <g id="Group">
                    <g id="evasmomlogo" fill="#5087F5">
                        <g id="EvasMom">
                            <g id="Page-1">
                                <g id="Sign-up-2">
                                    <g id="EvasMom">
                                        <g id="EvaLogo">
                                            <path d="M95.9654524,110.695143 C93.3699265,92.0051385 88.436227,77.7092825 75.9817671,70.1839846 L70.8567469,96.9279445 L59.5468239,96.9279445 L50.1788895,118.7304 C66.3852638,118.533216 82.4900518,116.10241 96.0619591,111.386988 L95.9654524,110.695143 Z" id="Shape"></path>
                                            <path d="M75.5551053,70.1788849 L75.9648362,70.1737852 C75.8717154,70.1176899 75.7701294,70.0700935 75.6736225,70.015698 C77.0094801,68.1356485 78.1709482,66.1213095 79.0801441,63.9692817 L84.9958433,63.9692817 C87.992634,63.9692817 90.5712287,62.8762692 92.6639029,60.7242414 C94.7565774,58.5722136 95.7825972,55.954423 95.709794,52.9473636 C95.0122358,24.3862488 74.4867577,0.258379327 48.0489671,0.258379327 C21.6128693,0.258379327 1.08739138,24.3862488 0.391526376,52.9473636 C0.317029879,55.9561228 1.34304981,58.5722136 3.43403102,60.7242414 C5.52839844,62.877969 8.10699308,63.9692817 11.103784,63.9692817 L17.0211762,63.9692817 C17.9320651,66.1247094 19.0952263,68.1424477 20.4327771,70.025897 C7.86318638,77.4390039 2.78726599,91.6345681 0.188354113,110.348371 L0.0427473216,111.388688 C13.3826995,116.022517 29.1657982,118.444823 45.0911175,118.716801 L36.3276204,94.4648419 L25.534094,94.7844163 L20.7713975,70.8792288 L21.0643042,70.8758292 C26.859793,78.4793206 35.9619106,83.412326 46.2136442,83.412326 L49.8859829,83.412326 C60.4458615,83.412326 69.7917854,78.1784449 75.5551053,70.1788849 Z M49.8876761,80.0125981 L46.2153374,80.0125981 C30.6100144,80.0125981 17.9151341,67.2653179 17.9151341,51.5976716 L17.9151341,22.021738 C21.0084318,24.0632747 24.6977015,25.271878 28.6747986,25.271878 C37.7007265,25.271878 45.2858243,19.1523676 47.5884432,10.8264338 C49.6421763,19.5144386 57.3999703,25.9875207 66.6832497,25.9875207 C70.9854224,25.9875207 74.9540541,24.5868328 78.1878791,22.234221 L78.1878791,51.5976716 C78.1878791,67.2653179 65.4929988,80.0125981 49.8876761,80.0125981 Z" id="Shape"></path>
                                            <path d="M42.1641039,61.7558994 C41.8357593,62.7836754 42.0155945,64.1150134 42.5655427,64.7286433 C44.5193669,66.9099567 46.5091582,68.0006132 48.5256348,68.0006132 C50.5339899,68.0006132 52.5643893,66.91863 54.6040705,64.7524948 C55.1609799,64.162716 55.3582187,62.8378831 55.0414765,61.7992657 C54.7258944,60.7563118 42.4924483,60.7259552 42.1641039,61.7558994 Z" id="Shape" transform="translate(48.596366, 64.500307) rotate(180.000000) translate(-48.596366, -64.500307) "></path>
                                            <path d="M62.9330285,28.7345009 C57.5895978,28.7345009 53.0724014,32.3722099 51.7162264,37.3120146 C49.1918111,36.2750975 46.8739542,36.2988955 44.5560972,37.4004076 C43.2287051,32.4147064 38.6911913,28.7345009 33.3138985,28.7345009 C26.8987344,28.7345009 21.6789003,33.9751815 21.6789003,40.4159662 C21.6789003,46.8567509 26.8987344,52.0974315 33.3138985,52.0974315 C39.5038802,52.0974315 44.5814939,47.2171222 44.9285796,41.0874126 C47.0720471,39.6374284 48.8752008,39.5728338 51.3048027,40.8630303 C51.5435299,47.0981317 56.665164,52.0957317 62.9313353,52.0957317 C69.3464995,52.0957317 74.5680267,46.8550511 74.5680267,40.4142664 C74.5680267,33.9734817 69.3481927,28.7345009 62.9330285,28.7345009 Z M33.3138985,48.6977035 C28.764533,48.6977035 25.0651047,44.9818008 25.0651047,40.4159662 C25.0651047,35.8501316 28.7662261,32.1342289 33.3138985,32.1342289 C37.8615712,32.1342289 41.5626926,35.8501316 41.5626926,40.4159662 C41.5626926,44.9818008 37.8632641,48.6977035 33.3138985,48.6977035 Z M62.9330285,48.6977035 C58.3853558,48.6977035 54.6859276,44.9818008 54.6859276,40.4159662 C54.6859276,40.2867767 54.6893137,40.1592869 54.6927001,40.0317968 C54.6960863,39.9927001 54.6994724,39.9536033 54.6994724,39.9162063 C54.956824,35.5815531 58.5512798,32.1342289 62.9330285,32.1342289 C67.4840871,32.1342289 71.1835156,35.8501316 71.1835156,40.4159662 C71.1835156,44.9818008 67.4840871,48.6977035 62.9330285,48.6977035 Z" id="Shape"></path>
                                        </g>
                                    </g>
                                </g>
                            </g>
                        </g>
                    </g>
                    <g id="water" transform="translate(4.000000, 9.000000)" stroke="#5087F5" stroke-width="4" fill="#FFFFFF" fill-rule="nonzero">
                        <path d="M0,20.9393623 C0,15.9353592 9,0 9,0 C9,0 18,15.9353592 18,20.9393623 C18,25.9433653 13.9706965,30 9,30 C4.02930346,30 0,25.943247 0,20.9393623 Z" id="Shape"></path>
                    </g>
                    <path d="M40,34 L30,48 C35.3333333,50 39,49.3333333 41,46 C43,42.6666667 42.6666667,38.6666667 40,34 Z" id="Path-11" fill="#5087F5" opacity="0.32"></path>
                    <path d="M69,34 L59,48 C64.3333333,50 68,49.3333333 70,46 C72,42.6666667 71.6666667,38.6666667 69,34 Z" id="Path-11-Copy" fill="#5087F5" opacity="0.320000023"></path>
                </g>
                <g id="Group-2" transform="translate(57.000000, 82.000000)">
                    <g id="search-(2)" fill-rule="nonzero" fill="#5087F5">
                        <path d="M55.146,51.887 L41.588,37.786 C45.074,33.642 46.984,28.428 46.984,23 C46.984,10.318 36.666,0 23.984,0 C11.302,0 0.984,10.318 0.984,23 C0.984,35.682 11.302,46 23.984,46 C28.745,46 33.282,44.564 37.161,41.838 L50.822,56.046 C51.393,56.639 52.161,56.966 52.984,56.966 C53.763,56.966 54.502,56.669 55.063,56.129 C56.255,54.982 56.293,53.08 55.146,51.887 Z M23.984,6 C33.358,6 40.984,13.626 40.984,23 C40.984,32.374 33.358,40 23.984,40 C14.61,40 6.984,32.374 6.984,23 C6.984,13.626 14.61,6 23.984,6 Z" id="Shape"></path>
                    </g>
                    <rect id="Rectangle-38" fill="#FFFFFF" x="7" y="6" width="34" height="34" rx="17"></rect>
                </g>
            </g>
        </g>
    </g>
</svg>