<?xml version="1.0" encoding="UTF-8"?>
<svg width="140px" height="33px" viewBox="0 0 140 33" version="1.1" xmlns="http://www.w3.org/2000/svg" xmlns:xlink="http://www.w3.org/1999/xlink">
    <!-- Generator: Sketch 41.2 (35397) - http://www.bohemiancoding.com/sketch -->
    <title>evasmomlogo</title>
    <desc>Created with Sketch.</desc>
    <defs></defs>
    <g id="Page-1" stroke="none" stroke-width="1" fill="none" fill-rule="evenodd">
        <g id="Desktop-Copy-2" transform="translate(-85.000000, -68.000000)">
            <g id="evasmomlogo" transform="translate(85.000000, 68.000000)">
                <g id="EvasMom">
                    <g id="Page-1">
                        <g id="Sign-up-2">
                            <g id="EvasMom">
                                <g id="EvaLogo" fill="#5087F5">
                                    <path d="M26.5760475,30.1388457 C25.8650214,25.0501385 24.513469,21.1578214 21.1016572,19.1089168 L19.6976939,26.3904656 L16.5994199,26.3904656 L14.03314,32.3265963 C18.4727625,32.2729092 22.8845561,31.6110764 26.6024848,30.3272135 L26.5760475,30.1388457 Z" id="Shape"></path>
                                    <path d="M20.9847762,19.1075283 L21.0970191,19.1061398 C21.0715093,19.0908668 21.0436805,19.0779078 21.0172431,19.0630976 C21.383192,18.5512186 21.701368,18.0027767 21.9504358,17.4168464 L23.5710001,17.4168464 C24.3919499,17.4168464 25.0983378,17.1192531 25.6716112,16.5333229 C26.2448847,15.9473926 26.5259556,15.2346496 26.5060117,14.4159209 C26.3149205,6.63961733 20.6921099,0.070348657 13.4496627,0.070348657 C6.20767935,0.070348657 0.584868774,6.63961733 0.394241441,14.4159209 C0.373833649,15.2351124 0.654904606,15.9473926 1.22771423,16.5333229 C1.80145148,17.1197159 2.50783938,17.4168464 3.3287892,17.4168464 L4.94981725,17.4168464 C5.19934889,18.0037024 5.51798874,18.5530698 5.88440137,19.0658745 C2.44105024,21.084233 1.05053749,24.9492438 0.338583826,30.0444304 L0.298695868,30.3276763 C3.95308213,31.589324 8.2767512,32.2488426 12.6393806,32.3228938 L10.2386821,25.7198393 L7.28187133,25.8068495 L5.97716407,19.2982102 L6.0574038,19.2972846 C7.64503727,21.3674789 10.1384985,22.7105829 12.9468889,22.7105829 L13.9529003,22.7105829 C16.8457049,22.7105829 19.4059552,21.2855598 20.9847762,19.1075283 Z M13.9533642,21.7849427 L12.9473528,21.7849427 C8.67238409,21.7849427 5.19471076,18.3142546 5.19471076,14.0484417 L5.19471076,5.99583455 C6.04209795,6.5516815 7.05274748,6.8807466 8.1422453,6.8807466 C10.6148349,6.8807466 12.6927192,5.2145942 13.3235055,2.94770129 C13.8861112,5.31317489 16.0113044,7.07559387 18.5543936,7.07559387 C19.7329436,7.07559387 20.8201224,6.6942301 21.7060061,6.05368707 L21.7060061,14.0484417 C21.7060061,18.3142546 18.2283328,21.7849427 13.9533642,21.7849427 Z" id="Shape"></path>
                                    <path d="M9.37830815,10.0320887 C8.90846512,10.0320887 8.52581903,10.4143781 8.52581903,10.8832149 C8.52581903,11.3520517 8.90846512,11.7343411 9.37830815,11.7343411 C9.84815118,11.7343411 10.2312611,11.3520517 10.2312611,10.8832149 C10.2312611,10.4143781 9.84815118,10.0320887 9.37830815,10.0320887 Z" id="Shape"></path>
                                    <path d="M17.5432803,10.0825361 C17.0739011,10.0825361 16.6907912,10.4648255 16.6907912,10.9336623 C16.6907912,11.4024991 17.0739011,11.7847885 17.5432803,11.7847885 C18.0135872,11.7847885 18.3966971,11.4024991 18.3966971,10.9336623 C18.3966971,10.4648255 18.0135872,10.0825361 17.5432803,10.0825361 Z" id="Shape"></path>
                                    <path d="M15.4987906,16.7304842 C14.1569783,17.489972 12.8879847,17.4922861 11.6194548,16.7355753 C11.3982158,16.6045971 11.1148257,16.6758714 10.9835666,16.895711 C10.8523074,17.1150878 10.9241984,17.3992592 11.144046,17.5302374 C11.9251079,17.9958344 12.7205479,18.2286329 13.5266557,18.2286329 C14.3295169,18.2286329 15.1411904,17.9976857 15.9565745,17.5353284 C16.1792049,17.4094413 16.2580532,17.1266583 16.1314322,16.9049674 C16.0052749,16.682351 15.7209572,16.6036715 15.4987906,16.7304842 Z" id="Shape"></path>
                                    <path d="M17.5270469,7.82351117 C16.0632515,7.82351117 14.8257973,8.81394621 14.4542827,10.1589015 C13.7627368,9.87658117 13.1277762,9.88306063 12.4928156,10.1829681 C12.1291858,8.82551671 10.8861658,7.82351117 9.41309414,7.82351117 C7.65570498,7.82351117 6.22576808,9.25038555 6.22576808,11.004011 C6.22576808,12.7576364 7.65570498,14.1845108 9.41309414,14.1845108 C11.1087962,14.1845108 12.4997728,12.8557543 12.5948545,11.186825 C13.1820424,10.7920393 13.6760037,10.7744522 14.341576,11.1257326 C14.4069737,12.8233569 15.8100094,14.184048 17.526583,14.184048 C19.2839722,14.184048 20.7143729,12.7571736 20.7143729,11.0035482 C20.7143729,9.24992275 19.2844361,7.82351117 17.5270469,7.82351117 Z M9.41309414,13.2588705 C8.16682741,13.2588705 7.153395,12.2471458 7.153395,11.004011 C7.153395,9.76087616 8.16729123,8.74915139 9.41309414,8.74915139 C10.6588972,8.74915139 11.6727934,9.76087616 11.6727934,11.004011 C11.6727934,12.2471458 10.6593609,13.2588705 9.41309414,13.2588705 Z M17.5270469,13.2588705 C16.2812439,13.2588705 15.2678115,12.2471458 15.2678115,11.004011 C15.2678115,10.9688367 15.2687391,10.9341252 15.2696668,10.8994136 C15.2705944,10.8887688 15.271522,10.8781239 15.271522,10.8679419 C15.3420216,9.6877506 16.3266976,8.74915139 17.5270469,8.74915139 C18.7737774,8.74915139 19.7872099,9.76087616 19.7872099,11.004011 C19.7872099,12.2471458 18.7737774,13.2588705 17.5270469,13.2588705 Z" id="Shape"></path>
                                </g>
                                <g id="EvaText" transform="translate(32.000000, 2.000000)" fill="#4F87F5">
                                    <path d="M0.0182904453,23.7010034 C0.0995806642,24.8616254 0.455220062,25.5640965 1.08521929,25.8084379 C1.71521852,26.0527794 2.13182467,26.1545868 2.33505022,26.1138632 L12.8214366,26.1138632 C13.857887,26.0731397 14.4929573,25.8288019 14.7266668,25.3808425 C14.9603761,24.9328833 15.0569067,24.4543883 15.0162616,23.9453436 C14.9349714,22.9679778 14.5894932,22.367314 13.9798165,22.1433344 C13.3701399,21.9193547 12.9433726,21.827728 12.6995019,21.8684516 L4.65181,21.8684516 L4.65181,17.1038169 L12.3336977,17.1038169 C13.3701481,17.0834551 14.0052184,16.8289365 14.2389277,16.3402536 C14.4726372,15.8515707 14.5691678,15.3730759 14.5285227,14.9047547 C14.4675551,13.8663035 14.1830436,13.2300072 13.6749797,12.9958466 C13.1669158,12.7616861 12.6791818,12.6649689 12.211763,12.7056925 L4.65181,12.7056925 L4.65181,8.18539808 L12.5775672,8.18539808 C14.0611137,8.22612166 14.7927148,7.49310826 14.7723922,5.98633591 C14.7114246,5.00897006 14.4370741,4.40830631 13.9493329,4.18432663 C13.4615915,3.96034695 13.0043408,3.86872028 12.5775672,3.90944386 L2.33505022,3.90944386 C1.21730966,4.03161459 0.53651424,4.48465759 0.292643571,5.26858645 C0.0487729021,6.05251532 -0.0426772244,6.49537757 0.0182904453,6.59718651 L0.0182904453,23.7010034 Z M20.6040287,24.4340241 C20.9698347,25.2484957 21.4118437,25.7371713 21.9300688,25.9000656 C22.448294,26.0629599 22.8191751,26.1342251 23.0427232,26.1138632 C23.9978833,26.0324161 24.6481953,25.7524458 24.9936788,25.2739437 C25.3391623,24.7954417 25.5017402,24.5154712 25.4814177,24.4340241 L29.9930026,12.8278626 C30.2978409,11.9523057 30.4197744,11.5043531 30.3588068,11.4839913 C30.2775165,10.4455401 29.9421994,9.80924377 29.3528452,9.5750832 C28.7634911,9.34092263 28.2859182,9.24420558 27.9201122,9.28492917 C27.1885002,9.36637632 26.6753634,9.63616597 26.3806863,10.0943062 C26.0860093,10.5524465 25.948834,10.8120554 25.9691566,10.8731407 L23.0427232,19.7915596 L20.1162898,10.8731407 C19.8520966,10.1197546 19.5269406,9.66162118 19.140812,9.49872687 C18.7546834,9.33583257 18.4295274,9.26456737 18.1653341,9.28492917 C17.0475936,9.38673811 16.3667982,9.75833517 16.1229276,10.3997315 C15.8790569,11.0411279 15.7876068,11.4025442 15.8485744,11.4839913 C15.9298646,12.2984629 16.0111536,12.7464155 16.0924438,12.8278626 L20.6040287,24.4340241 Z M45.6403844,14.2939042 C45.5997393,13.0314733 45.2440999,12.0490317 44.5734555,11.3465499 C43.9028112,10.6440682 43.1254852,10.1350312 42.241454,9.81942344 C41.3574228,9.50381571 40.5800967,9.315472 39.9094523,9.25438664 C39.238808,9.19330126 38.8933297,9.16275905 38.8730072,9.16275905 C37.2268802,9.20348262 35.9414978,9.48345301 35.0168215,10.0026786 C34.0921452,10.5219042 33.431672,11.1276584 33.0353822,11.8199592 C32.6390924,12.51226 32.4003059,13.1180141 32.3190157,13.6372397 C32.2377254,14.1564653 32.2072421,14.4364358 32.2275647,14.4771593 C32.3698225,15.1287365 32.9947317,15.4545203 34.1023111,15.4545203 C35.2098903,15.4545203 35.8652829,15.1287365 36.0685084,14.4771593 C36.2107664,13.7237731 36.7137421,13.2656398 37.5774507,13.1027454 C38.4411593,12.9398511 38.9339739,12.8685859 39.0559093,12.8889477 C40.2955851,12.9703948 41.052589,13.2401845 41.3269436,13.6983248 C41.601298,14.1564651 41.7181509,14.4160739 41.6775058,14.4771593 L41.6775058,15.8210306 C38.8933157,16.167181 36.5765791,16.8289293 34.7272265,17.8062951 C32.8778739,18.7836609 31.9227281,20.198784 31.8617605,22.0517068 C31.9836957,23.8639059 32.6340078,25.0245105 33.8127161,25.5335552 C34.9914243,26.0425999 35.9262478,26.2767569 36.6172147,26.2360334 C38.2023741,26.1545862 39.4369509,25.8338929 40.320982,25.2739437 C41.2050132,24.7139945 41.6571833,24.3933011 41.6775058,24.3118539 L41.9213752,24.3118539 C42.2058911,25.2484963 42.7088668,25.8084371 43.4303175,25.9916931 C44.1517683,26.1749493 44.6649051,26.2563952 44.9697434,26.2360334 L46.4939275,26.2360334 C47.3271523,26.073139 47.7590001,25.4775657 47.789484,24.4492954 C47.8199677,23.421025 47.469409,22.8254517 46.7377969,22.6625574 C46.2094105,22.6421956 45.8842545,22.525117 45.7623191,22.3113182 C45.6403838,22.0975195 45.5997393,21.9702602 45.6403844,21.9295366 L45.6403844,14.2939042 Z M41.6165384,19.4250492 C41.453958,20.9114598 40.8087266,21.9346243 39.6808247,22.4945734 C38.5529228,23.0545227 37.9178525,23.3141315 37.7755947,23.2734079 C36.7188217,23.3955787 36.0735902,23.2326869 35.8398809,22.7847275 C35.6061715,22.3367682 35.5198019,22.0720689 35.5807695,21.9906217 C35.6823824,21.2779591 36.093908,20.7536509 36.8153587,20.4176814 C37.5368094,20.0817119 37.9584961,19.9137297 38.0804315,19.9137297 C39.8281712,19.404685 41.0068618,19.0992627 41.6165384,18.9974537 L41.6165384,19.4250492 Z M76.6515416,25.1059598 C76.9563801,22.0516915 77.118958,18.9974691 77.1392805,15.9432007 C77.1799257,14.660408 76.5905804,14.0495635 75.3712271,14.110649 L74.2738146,14.110649 L75.188325,2.93208289 C75.1273574,1.91399346 74.4973675,1.40495639 73.2983368,1.40495639 L60.9219621,1.40495639 C60.0277696,1.56785069 59.5806801,2.15324334 59.5806801,3.16115187 C59.5806801,4.16906041 60.0277696,4.7442723 60.9219621,4.88680482 L70.9206096,4.88680482 C71.3677058,4.94789018 71.4896393,5.27367392 71.2864137,5.86416579 L70.6157728,14.110649 L65.9822532,14.110649 C65.0677383,14.2328196 64.4987151,13.8866745 64.2751671,13.0722029 L65.0677428,7.81888771 C65.0880654,6.7804365 64.5850897,6.18995349 63.5588005,6.04742097 C62.5325115,5.90488845 61.8771188,6.39356405 61.5926032,7.51346242 L60.3122884,15.8821157 C60.291966,16.9205669 60.8203445,17.470327 61.89744,17.5314123 L72.5057611,17.5314123 C73.3186633,17.6128594 73.6438193,17.9386432 73.4812389,18.5087732 C73.5422065,20.9521878 73.3593063,23.1715895 72.9325326,25.1670449 C72.5260815,25.8593456 71.8148026,26.1545872 70.7986748,26.0527782 C70.0060951,25.9509693 69.2135274,25.8797041 68.4209478,25.8389805 C67.5064327,25.9611513 67.003457,26.4956402 66.9120055,27.4424633 C66.820554,28.3892865 67.3235298,29.0255828 68.4209478,29.3513715 C70.2296552,29.6975219 72.160269,29.6567989 74.2128472,29.2292014 C75.0663945,28.9237746 75.6659009,28.3892855 76.0113844,27.6257185 C76.3568678,26.8621514 76.5702514,26.0222402 76.6515416,25.1059598 Z M58.3003655,18.1422629 C59.0523001,14.4771409 59.4181006,10.6491821 59.397778,6.65827157 C59.4181006,5.43656426 58.808433,4.84608124 57.5687572,4.88680482 L54.520389,4.88680482 C54.6220019,3.78726825 54.7032908,2.70810964 54.7642584,1.64929663 C54.6220006,0.549760045 54.0682193,0 53.1028979,0 C52.1375765,0 51.5329894,0.549760045 51.2891189,1.64929663 C51.2687962,2.78955679 51.2281517,3.8687154 51.1671841,4.88680482 L49.9478368,4.88680482 C49.0942895,5.04969914 48.6675222,5.65545325 48.6675222,6.70408537 C48.6675222,7.75271748 49.0942895,8.34829087 49.9478368,8.49082339 L50.8623473,8.49082339 C50.4762187,11.5043681 49.8868734,14.5178677 49.0942937,17.5314123 C48.9520359,18.0811806 49.0536471,18.5698562 49.3991305,18.9974537 L52.6913682,22.9679826 C52.6710455,23.0290681 52.6304011,23.0901525 52.5694334,23.1512378 C51.4110477,24.576563 50.3136462,25.7880713 49.2771958,26.7857989 C48.6065515,27.8038884 48.6065515,28.6387091 49.2771958,29.2902864 C49.9478402,29.9418636 50.7200857,29.9825866 51.5939557,29.4124565 C52.8742766,28.31292 54.0123227,27.0810502 55.0081279,25.7168104 C55.6381271,26.4701966 56.186828,27.1319448 56.6542468,27.7020749 C57.3248911,28.4147375 58.0158476,28.4707316 58.7271371,27.8700587 C59.4384265,27.269386 59.56036,26.4294748 59.0929412,25.3503001 C58.462942,24.3729341 57.7110188,23.4159444 56.8371489,22.4793022 C57.5077932,21.0947005 57.9955272,19.6490352 58.3003655,18.1422629 Z M54.0936175,8.49082339 L55.6178015,8.49082339 C56.0242527,8.6333559 56.1258639,9.04058556 55.9226384,9.71252459 C55.8819933,13.1129433 55.3332924,16.4115036 54.2765196,19.6083044 C53.7481332,18.9567271 53.3213659,18.4273286 52.996205,18.0200928 C52.7523343,17.6332188 52.6913675,17.2463506 52.8133029,16.8594766 C53.3213668,14.1106352 53.7481341,11.321112 54.0936175,8.49082339 Z M70.493838,24.372939 C71.3473855,24.2304065 71.7741526,23.6246524 71.7741526,22.5556585 C71.7741526,21.4866646 71.3473855,20.8707298 70.493838,20.7078355 L59.9464843,20.7078355 C59.0522919,20.8707298 58.6052023,21.4866646 58.6052023,22.5556585 C58.6052023,23.6246524 59.0522919,24.2304065 59.9464843,24.372939 L70.493838,24.372939 Z M107.113993,25.1059598 C107.418831,22.0516915 107.581409,18.9974691 107.601732,15.9432007 C107.642377,14.660408 107.053031,14.0495635 105.833678,14.110649 L104.736266,14.110649 L105.650776,2.93208289 C105.589808,1.91399346 104.959818,1.40495639 103.760788,1.40495639 L91.3844132,1.40495639 C90.4902206,1.56785069 90.0431311,2.15324334 90.0431311,3.16115187 C90.0431311,4.16906041 90.4902206,4.7442723 91.3844132,4.88680482 L101.383061,4.88680482 C101.830157,4.94789018 101.95209,5.27367392 101.748865,5.86416579 L101.078224,14.110649 L96.4447043,14.110649 C95.5301892,14.2328196 94.9611662,13.8866745 94.737618,13.0722029 L95.5301937,7.81888771 C95.5505164,6.7804365 95.0475407,6.18995349 94.0212515,6.04742097 C92.9949625,5.90488845 92.3395698,6.39356405 92.0550541,7.51346242 L90.7747394,15.8821157 C90.7544169,16.9205669 91.2827955,17.470327 92.359891,17.5314123 L102.968212,17.5314123 C103.781114,17.6128594 104.10627,17.9386432 103.94369,18.5087732 C104.004657,20.9521878 103.821757,23.1715895 103.394984,25.1670449 C102.988532,25.8593456 102.277254,26.1545872 101.261126,26.0527782 C100.468546,25.9509693 99.6759784,25.8797041 98.8833987,25.8389805 C97.9688837,25.9611513 97.465908,26.4956402 97.3744565,27.4424633 C97.283005,28.3892865 97.7859807,29.0255828 98.8833987,29.3513715 C100.692106,29.6975219 102.62272,29.6567989 104.675298,29.2292014 C105.528845,28.9237746 106.128352,28.3892855 106.473835,27.6257185 C106.819319,26.8621514 107.032703,26.0222402 107.113993,25.1059598 Z M88.7628165,18.1422629 C89.5147511,14.4771409 89.8805516,10.6491821 89.860229,6.65827157 C89.8805516,5.43656426 89.2708841,4.84608124 88.0312082,4.88680482 L84.98284,4.88680482 C85.0844528,3.78726825 85.1657418,2.70810964 85.2267094,1.64929663 C85.0844516,0.549760045 84.5306703,0 83.5653489,0 C82.6000275,0 81.9954405,0.549760045 81.7515698,1.64929663 C81.7312472,2.78955679 81.6906027,3.8687154 81.6296351,4.88680482 L80.4102879,4.88680482 C79.5567405,5.04969914 79.1299732,5.65545325 79.1299732,6.70408537 C79.1299732,7.75271748 79.5567405,8.34829087 80.4102879,8.49082339 L81.3247983,8.49082339 C80.9386698,11.5043681 80.3493244,14.5178677 79.5567447,17.5314123 C79.4144869,18.0811806 79.5160981,18.5698562 79.8615815,18.9974537 L83.1538191,22.9679826 C83.1334967,23.0290681 83.0928522,23.0901525 83.0318844,23.1512378 C81.8734987,24.576563 80.7760972,25.7880713 79.7396468,26.7857989 C79.0690024,27.8038884 79.0690024,28.6387091 79.7396468,29.2902864 C80.4102911,29.9418636 81.1825367,29.9825866 82.0564066,29.4124565 C83.3367276,28.31292 84.4747737,27.0810502 85.470579,25.7168104 C86.1005782,26.4701966 86.649279,27.1319448 87.1166978,27.7020749 C87.7873421,28.4147375 88.4782986,28.4707316 89.189588,27.8700587 C89.9008775,27.269386 90.022811,26.4294748 89.5553922,25.3503001 C88.925393,24.3729341 88.1734698,23.4159444 87.2995998,22.4793022 C87.9702442,21.0947005 88.4579782,19.6490352 88.7628165,18.1422629 Z M84.5560685,8.49082339 L86.0802526,8.49082339 C86.4867036,8.6333559 86.588315,9.04058556 86.3850894,9.71252459 C86.3444443,13.1129433 85.7957436,16.4115036 84.7389705,19.6083044 C84.2105842,18.9567271 83.7838169,18.4273286 83.458656,18.0200928 C83.2147853,17.6332188 83.1538185,17.2463506 83.2757539,16.8594766 C83.7838178,14.1106352 84.210585,11.321112 84.5560685,8.49082339 Z M100.956289,24.372939 C101.809836,24.2304065 102.236604,23.6246524 102.236604,22.5556585 C102.236604,21.4866646 101.809836,20.8707298 100.956289,20.7078355 L90.4089353,20.7078355 C89.5147428,20.8707298 89.0676533,21.4866646 89.0676533,22.5556585 C89.0676533,23.6246524 89.5147428,24.2304065 90.4089353,24.372939 L100.956289,24.372939 Z" id="Eva妈妈"></path>
                                </g>
                            </g>
                        </g>
                    </g>
                </g>
            </g>
        </g>
    </g>
</svg>