<?xml version="1.0" encoding="UTF-8"?>
<svg width="126px" height="37px" viewBox="0 0 126 37" version="1.1" xmlns="http://www.w3.org/2000/svg" xmlns:xlink="http://www.w3.org/1999/xlink">
    <title>EvasMom</title>
    <defs></defs>
    <g id="Page-1" stroke="none" stroke-width="1" fill="none" fill-rule="evenodd">
        <g id="Sign-up-2" transform="translate(-12.000000, -11.000000)" fill="#5C8CEB">
            <g id="EvasMom" transform="translate(12.000000, 11.000000)">
                <g id="EvaLogo">
                    <path d="M30.1887958,34.1699557 C29.3811128,28.4006273 27.8458304,23.9877077 23.9702168,21.6647594 L22.3753987,29.9202248 L18.8559453,29.9202248 L15.9408053,36.6503208 C20.9839501,36.589453 25.995483,35.8390992 30.218827,34.3835179 L30.1887958,34.1699557 Z" id="Shape"></path>
                    <path d="M23.837447,21.6631852 L23.9649482,21.661611 C23.9359706,21.6442952 23.9043588,21.6296029 23.8743275,21.6128118 C24.2900234,21.0324683 24.6514523,20.4106716 24.9343784,19.7463724 L26.7752422,19.7463724 C27.7077919,19.7463724 28.5102062,19.4089756 29.1614104,18.7446764 C29.8126147,18.0803772 30.1318944,17.2723039 30.1092393,16.3440691 C29.8921712,7.52767482 23.5049956,0.0797578818 15.2780101,0.0797578818 C7.05155138,0.0797578818 0.664375844,7.52767482 0.447834629,16.3440691 C0.424652601,17.2728286 0.743932348,18.0803772 1.39460972,18.7446764 C2.04634082,19.4095003 2.8487551,19.7463724 3.78130486,19.7463724 L5.62269548,19.7463724 C5.90614846,20.4117211 6.26810421,21.0345671 6.68432698,21.6159601 C2.77288665,23.9042767 1.19334757,28.2862377 0.384610917,34.0629122 L0.339300589,34.3840426 C4.49046417,35.8144373 9.40189289,36.5621674 14.3575782,36.6461231 L11.6305287,29.1599014 L8.27176903,29.2585493 L6.78969984,21.879371 L6.88084736,21.8783216 C8.68430375,24.2254071 11.5167261,25.748153 14.7068892,25.748153 L15.8496578,25.748153 C19.1357103,25.748153 22.044001,24.1325312 23.837447,21.6631852 Z M15.8501847,24.6987072 L14.7074161,24.6987072 C9.85130811,24.6987072 5.90087982,20.7638101 5.90087982,15.9274391 L5.90087982,6.79778525 C6.86346084,7.42797746 8.01149808,7.80105545 9.24910225,7.80105545 C12.0578157,7.80105545 14.4181676,5.91205299 15.134703,3.34196019 C15.7737894,6.02381897 18.1878814,8.02196379 21.0766782,8.02196379 C22.4154403,8.02196379 23.6504102,7.58959212 24.6567209,6.86337562 L24.6567209,15.9274391 C24.6567209,20.7638101 20.7062926,24.6987072 15.8501847,24.6987072 Z" id="Shape"></path>
                    <path d="M10.6531955,11.3738937 C10.119482,11.3738937 9.684819,11.8073148 9.684819,12.3388591 C9.684819,12.8704034 10.119482,13.3038246 10.6531955,13.3038246 C11.186909,13.3038246 11.6220989,12.8704034 11.6220989,12.3388591 C11.6220989,11.8073148 11.186909,11.3738937 10.6531955,11.3738937 Z" id="Shape"></path>
                    <path d="M19.9281141,11.4310885 C19.3949275,11.4310885 18.9597376,11.8645096 18.9597376,12.3960539 C18.9597376,12.9275982 19.3949275,13.3610194 19.9281141,13.3610194 C20.4623545,13.3610194 20.8975444,12.9275982 20.8975444,12.3960539 C20.8975444,11.8645096 20.4623545,11.4310885 19.9281141,11.4310885 Z" id="Shape"></path>
                    <path d="M17.6056964,18.9682083 C16.0814781,19.8292786 14.6399775,19.8319022 13.1990037,18.9739803 C12.9476894,18.8254837 12.6257753,18.906291 12.4766728,19.1555344 C12.3275702,19.4042531 12.4092341,19.7264329 12.6589678,19.8749295 C13.5462072,20.4028008 14.4497794,20.6667364 15.3654695,20.6667364 C16.2774716,20.6667364 17.1994841,20.4048997 18.1257115,19.8807015 C18.3786063,19.7379768 18.4681732,19.4173712 18.3243393,19.1660289 C18.1810322,18.9136372 17.8580644,18.8244343 17.6056964,18.9682083 Z" id="Shape"></path>
                    <path d="M19.9096739,8.86991601 C18.2468902,8.86991601 16.8412164,9.99282303 16.4191981,11.5176678 C15.6336435,11.1975868 14.9123663,11.2049329 14.1910891,11.5449534 C13.7780275,10.0059411 12.3660313,8.86991601 10.6927103,8.86991601 C8.69642163,8.86991601 7.07209909,10.4876367 7.07209909,12.4758118 C7.07209909,14.4639869 8.69642163,16.0817076 10.6927103,16.0817076 C12.6189261,16.0817076 14.1989921,14.5752282 14.3069992,12.6830774 C14.9740094,12.2354887 15.5351198,12.2155493 16.2911701,12.6138139 C16.3654579,14.5384976 17.9592223,16.0811829 19.909147,16.0811829 C21.9054357,16.0811829 23.5302851,14.4634622 23.5302851,12.4752871 C23.5302851,10.487112 21.9059626,8.86991601 19.9096739,8.86991601 Z M10.6927103,15.0322618 C9.27702605,15.0322618 8.12582763,13.8852175 8.12582763,12.4758118 C8.12582763,11.0664061 9.27755292,9.91936182 10.6927103,9.91936182 C12.1078678,9.91936182 13.2595931,11.0664061 13.2595931,12.4758118 C13.2595931,13.8852175 12.1083946,15.0322618 10.6927103,15.0322618 Z M19.9096739,15.0322618 C18.4945164,15.0322618 17.343318,13.8852175 17.343318,12.4758118 C17.343318,12.4359329 17.3443717,12.3965787 17.3454255,12.3572244 C17.3464792,12.3451558 17.3475329,12.3330872 17.3475329,12.3215433 C17.4276163,10.9834999 18.5461491,9.91936182 19.9096739,9.91936182 C21.325885,9.91936182 22.4770835,11.0664061 22.4770835,12.4758118 C22.4770835,13.8852175 21.325885,15.0322618 19.9096739,15.0322618 Z" id="Shape"></path>
                </g>
                <g id="EvaText" transform="translate(38.000000, 0.000000)">
                    <path d="M1.01464586,18.9417336 C1.07973805,19.8692974 1.36451213,20.4307091 1.86897663,20.6259857 C2.37344113,20.8212623 2.70703362,20.9026263 2.8697641,20.8700802 L11.2666151,20.8700802 C12.0965406,20.8375341 12.6050657,20.6422605 12.7922058,20.2842534 C12.9793458,19.9262464 13.0566416,19.5438354 13.0240955,19.1370092 C12.9590033,18.3559029 12.6823657,17.8758552 12.1941742,17.6968517 C11.7059828,17.5178481 11.3642539,17.4446205 11.1689773,17.4771666 L4.72488234,17.4771666 L4.72488234,13.6692923 L10.8760639,13.6692923 C11.7059894,13.6530193 12.2145145,13.4496092 12.4016545,13.059056 C12.5887946,12.6685029 12.6660904,12.286092 12.6335443,11.9118119 C12.5847252,11.0818864 12.3569059,10.5733613 11.9500797,10.3862212 C11.5432535,10.1990812 11.1527062,10.1217853 10.7784261,10.1543314 L4.72488234,10.1543314 L4.72488234,6.54173275 L11.0713395,6.54173275 C12.259272,6.57427885 12.845093,5.98845789 12.8288199,4.78425231 C12.7800008,4.00314599 12.5603179,3.52309826 12.1697648,3.34409473 C11.7792116,3.16509119 11.4130735,3.09186357 11.0713395,3.12440967 L2.8697641,3.12440967 C1.97474644,3.22204796 1.42960749,3.58411786 1.23433091,4.21063022 C1.03905433,4.83714259 0.965826713,5.19107608 1.01464586,5.27244132 L1.01464586,18.9417336 Z M17.4984345,19.5275604 C17.7913494,20.1784824 18.1452829,20.5690297 18.5602456,20.6992141 C18.9752083,20.8293985 19.272187,20.8863533 19.4511905,20.8700802 C20.2160238,20.804988 20.7367535,20.581237 21.0133954,20.1988203 C21.2900372,19.8164037 21.4202196,19.5926526 21.4039466,19.5275604 L25.0165453,10.2519692 C25.260641,9.55222815 25.3582778,9.19422646 25.3094587,9.17795341 C25.2443665,8.34802794 24.9758652,7.83950281 24.5039468,7.65236275 C24.0320284,7.46522269 23.6496175,7.38792687 23.3567026,7.42047297 C22.7708729,7.48556516 22.3599846,7.70117982 22.1240254,8.06732341 C21.8880662,8.433467 21.7782247,8.64094525 21.7944978,8.6897644 L19.4511905,15.817324 L17.1078833,8.6897644 C16.8963337,8.08766161 16.6359688,7.72152351 16.3267809,7.59133912 C16.0175929,7.46115474 15.7572281,7.40419992 15.5456784,7.42047297 C14.6506608,7.50183821 14.1055218,7.79881689 13.9102453,8.31141792 C13.7149687,8.82401894 13.6417411,9.11286122 13.6905602,9.17795341 C13.7556524,9.82887535 13.8207436,10.186877 13.8858358,10.2519692 L17.4984345,19.5275604 Z M37.5460029,11.4236229 C37.5134568,10.4146939 37.2286827,9.62953105 36.6916721,9.06811088 C36.1546615,8.50669071 35.5322268,8.09987061 34.8243492,7.84763835 C34.1164716,7.5954061 33.4940368,7.44488266 32.9570262,7.39606352 C32.4200156,7.34724437 32.1433779,7.32283517 32.1271049,7.32283517 C30.808988,7.35538126 29.7797331,7.57913232 29.0393094,7.99409506 C28.2988857,8.40905779 27.7700195,8.89317372 27.4526951,9.44645737 C27.1353707,9.99974101 26.9441652,10.4838569 26.879073,10.8988197 C26.8139808,11.3137824 26.7895716,11.5375335 26.8058447,11.5700796 C26.919756,12.0908171 27.4201447,12.351182 28.3070259,12.351182 C29.193907,12.351182 29.7187049,12.0908171 29.8814354,11.5700796 C29.9953468,10.9679768 30.3980987,10.6018387 31.0897032,10.4716543 C31.7813078,10.3414699 32.1759233,10.2845151 32.2735616,10.3007881 C33.2662175,10.3658803 33.8723795,10.581495 34.0920657,10.9476386 C34.3117518,11.3137822 34.4053204,11.5212604 34.3727743,11.5700796 L34.3727743,12.6440954 C32.1433667,12.9207372 30.288267,13.4496034 28.8074196,14.2307097 C27.3265722,15.011816 26.5617504,16.1427759 26.5129313,17.6236233 C26.6105695,19.0719246 27.1312993,19.9994745 28.0751361,20.4063007 C29.0189729,20.8131269 29.7675219,21.0002641 30.3208055,20.967718 C31.5901033,20.9026258 32.5786762,20.6463292 33.2865538,20.1988203 C33.9944314,19.7513115 34.3565013,19.4950148 34.3727743,19.4299226 L34.5680499,19.4299226 C34.7958726,20.1784829 35.1986245,20.625985 35.7763177,20.7724424 C36.354011,20.9188999 36.7648993,20.9839911 37.008995,20.967718 L38.2294675,20.967718 C38.8966625,20.8375336 39.2424596,20.3615541 39.2668692,19.5397652 C39.2912787,18.7179762 39.0105729,18.2419967 38.4247431,18.1118123 C38.0016439,18.0955393 37.741279,18.0019706 37.6436407,17.8311036 C37.5460024,17.6602366 37.5134568,17.5585316 37.5460029,17.5259855 L37.5460029,11.4236229 Z M34.3239554,15.5244106 C34.193771,16.7123431 33.6771095,17.5300515 32.7739553,17.9775603 C31.8708011,18.4250692 31.362276,18.6325474 31.2483647,18.6000013 C30.4021661,18.6976396 29.8855046,18.5674572 29.6983646,18.2094501 C29.5112245,17.8514431 29.4420651,17.6398966 29.4908842,17.5748044 C29.5722495,17.0052477 29.9017738,16.586223 30.479467,16.3177177 C31.0571602,16.0492124 31.3948209,15.9149618 31.4924592,15.9149618 C32.8919413,15.5081356 33.835764,15.2640435 34.3239554,15.1826782 L34.3239554,15.5244106 Z M62.3778236,20.0645684 C62.6219194,17.6236111 62.7521018,15.1826905 62.7683748,12.7417332 C62.8009209,11.7165311 62.3290096,11.228347 61.3526267,11.2771662 L60.4738865,11.2771662 L61.20617,2.34330725 C61.1573509,1.52965483 60.6528939,1.12283473 59.6927841,1.12283473 L49.7825471,1.12283473 C49.066533,1.25301911 48.7085313,1.72086224 48.7085313,2.52637813 C48.7085313,3.33189403 49.066533,3.79160075 49.7825471,3.90551209 L57.7888469,3.90551209 C58.146854,3.95433123 58.2444908,4.2146961 58.0817603,4.68661451 L57.5447524,11.2771662 L53.8345159,11.2771662 C53.1022288,11.3748044 52.6465902,11.0981668 52.4675867,10.4472448 L53.1022324,6.24881934 C53.1185055,5.41889387 52.7157536,4.94698255 51.8939646,4.83307121 C51.0721757,4.71915987 50.5473777,5.10970718 50.3195551,6.00472484 L49.2943581,12.6929143 C49.2780851,13.5228398 49.701178,13.9622055 50.5636496,14.0110246 L59.0581384,14.0110246 C59.7090603,14.0761168 59.9694252,14.3364817 59.8392408,14.792127 C59.8880599,16.7448928 59.7416047,18.5186285 59.3998707,20.1133873 C59.0744097,20.6666709 58.5048615,20.9026266 57.6912091,20.8212613 C57.0565602,20.7398961 56.4219209,20.6829413 55.787272,20.6503952 C55.0549848,20.7480335 54.6522329,21.1751946 54.5790042,21.9318913 C54.5057755,22.6885881 54.9085274,23.1971132 55.787272,23.457482 C57.2355733,23.7341238 58.7814897,23.7015782 60.4250676,23.3598442 C61.1085356,23.1157485 61.5885833,22.6885873 61.8652252,22.078348 C62.141867,21.4681087 62.3127314,20.7968555 62.3778236,20.0645684 Z M47.6833344,14.4992136 C48.2854372,11.5700649 48.5783477,8.51077771 48.5620746,5.32126022 C48.5783477,4.34487732 48.0901635,3.87296599 47.0975076,3.90551209 L44.6565625,3.90551209 C44.7379278,3.02676748 44.803019,2.16430885 44.8518381,1.31811033 C44.7379268,0.439365716 44.2944929,-1.77635684e-15 43.5215231,-1.77635684e-15 C42.7485533,-1.77635684e-15 42.2644373,0.439365716 42.0691608,1.31811033 C42.0528877,2.22940104 42.0203421,3.09185967 41.971523,3.90551209 L40.9951449,3.90551209 C40.3116769,4.03569648 39.969948,4.5198124 39.969948,5.3578744 C39.969948,6.19593639 40.3116769,6.67191592 40.9951449,6.78582726 L41.7274285,6.78582726 C41.4182405,9.19423842 40.9463292,11.6026135 40.3116803,14.0110246 C40.197769,14.4503969 40.279133,14.8409442 40.5557748,15.1826782 L43.1919955,18.3559068 C43.1757224,18.404726 43.1431768,18.4535444 43.0943577,18.5023635 C42.1667939,19.6414769 41.2880625,20.6097088 40.458137,21.4070881 C39.9211264,22.2207406 39.9211264,22.8879255 40.458137,23.4086631 C40.9951476,23.9294006 41.6135142,23.9619462 42.3132553,23.5063009 C43.3384573,22.6275563 44.2497344,21.6430516 45.0471137,20.5527574 C45.5515782,21.1548602 45.990944,21.6837263 46.3652241,22.1393717 C46.9022347,22.7089284 47.45551,22.7536786 48.0250667,22.2736236 C48.5946234,21.7935687 48.6922602,21.1223155 48.3179801,20.259844 C47.8135156,19.4787376 47.2114219,18.7139158 46.5116808,17.9653556 C47.0486914,16.8587883 47.4392387,15.7034192 47.6833344,14.4992136 Z M44.3148302,6.78582726 L45.5353027,6.78582726 C45.8607637,6.89973859 45.9421277,7.22519468 45.7793973,7.76220528 C45.7468512,10.4798044 45.3074854,13.1159987 44.4612869,15.6708673 C44.0381877,15.1501297 43.6964588,14.7270368 43.43609,14.4015758 C43.2408134,14.0923879 43.191995,13.7832046 43.2896333,13.4740167 C43.6964595,11.2771552 44.0381884,9.04778098 44.3148302,6.78582726 Z M57.4471146,19.4787415 C58.1305827,19.3648302 58.4723115,18.8807143 58.4723115,18.0263792 C58.4723115,17.1720442 58.1305827,16.6797919 57.4471146,16.5496075 L49.0014447,16.5496075 C48.2854306,16.6797919 47.9274289,17.1720442 47.9274289,18.0263792 C47.9274289,18.8807143 48.2854306,19.3648302 49.0014447,19.4787415 L57.4471146,19.4787415 Z M86.7702742,20.0645684 C87.01437,17.6236111 87.1445524,15.1826905 87.1608255,12.7417332 C87.1933716,11.7165311 86.7214602,11.228347 85.7450773,11.2771662 L84.8663371,11.2771662 L85.5986206,2.34330725 C85.5498015,1.52965483 85.0453445,1.12283473 84.0852347,1.12283473 L74.1749978,1.12283473 C73.4589836,1.25301911 73.1009819,1.72086224 73.1009819,2.52637813 C73.1009819,3.33189403 73.4589836,3.79160075 74.1749978,3.90551209 L82.1812975,3.90551209 C82.5393046,3.95433123 82.6369414,4.2146961 82.4742109,4.68661451 L81.937203,11.2771662 L78.2269666,11.2771662 C77.4946794,11.3748044 77.0390409,11.0981668 76.8600373,10.4472448 L77.494683,6.24881934 C77.5109561,5.41889387 77.1082042,4.94698255 76.2864152,4.83307121 C75.4646263,4.71915987 74.9398283,5.10970718 74.7120057,6.00472484 L73.6868087,12.6929143 C73.6705357,13.5228398 74.0936286,13.9622055 74.9561002,14.0110246 L83.450589,14.0110246 C84.1015109,14.0761168 84.3618758,14.3364817 84.2316914,14.792127 C84.2805105,16.7448928 84.1340553,18.5186285 83.7923213,20.1133873 C83.4668603,20.6666709 82.8973122,20.9026266 82.0836597,20.8212613 C81.4490109,20.7398961 80.8143715,20.6829413 80.1797226,20.6503952 C79.4474354,20.7480335 79.0446835,21.1751946 78.9714548,21.9318913 C78.8982261,22.6885881 79.300978,23.1971132 80.1797226,23.457482 C81.6280239,23.7341238 83.1739403,23.7015782 84.8175182,23.3598442 C85.5009862,23.1157485 85.981034,22.6885873 86.2576758,22.078348 C86.5343176,21.4681087 86.7051821,20.7968555 86.7702742,20.0645684 Z M72.075785,14.4992136 C72.6778878,11.5700649 72.9707983,8.51077771 72.9545252,5.32126022 C72.9707983,4.34487732 72.4826142,3.87296599 71.4899582,3.90551209 L69.0490131,3.90551209 C69.1303784,3.02676748 69.1954696,2.16430885 69.2442887,1.31811033 C69.1303774,0.439365716 68.6869435,-1.77635684e-15 67.9139737,-1.77635684e-15 C67.1410039,-1.77635684e-15 66.656888,0.439365716 66.4616114,1.31811033 C66.4453383,2.22940104 66.4127927,3.09185967 66.3639736,3.90551209 L65.3875956,3.90551209 C64.7041275,4.03569648 64.3623986,4.5198124 64.3623986,5.3578744 C64.3623986,6.19593639 64.7041275,6.67191592 65.3875956,6.78582726 L66.1198791,6.78582726 C65.8106912,9.19423842 65.3387798,11.6026135 64.7041309,14.0110246 C64.5902196,14.4503969 64.6715836,14.8409442 64.9482254,15.1826782 L67.5844461,18.3559068 C67.5681731,18.404726 67.5356275,18.4535444 67.4868083,18.5023635 C66.5592445,19.6414769 65.6805131,20.6097088 64.8505876,21.4070881 C64.313577,22.2207406 64.313577,22.8879255 64.8505876,23.4086631 C65.3875982,23.9294006 66.0059648,23.9619462 66.7057059,23.5063009 C67.7309079,22.6275563 68.642185,21.6430516 69.4395644,20.5527574 C69.9440289,21.1548602 70.3833946,21.6837263 70.7576747,22.1393717 C71.2946853,22.7089284 71.8479606,22.7536786 72.4175173,22.2736236 C72.987074,21.7935687 73.0847108,21.1223155 72.7104307,20.259844 C72.2059662,19.4787376 71.6038725,18.7139158 70.9041314,17.9653556 C71.441142,16.8587883 71.8316893,15.7034192 72.075785,14.4992136 Z M68.7072808,6.78582726 L69.9277534,6.78582726 C70.2532143,6.89973859 70.3345784,7.22519468 70.1718479,7.76220528 C70.1393018,10.4798044 69.6999361,13.1159987 68.8537375,15.6708673 C68.4306383,15.1501297 68.0889094,14.7270368 67.8285406,14.4015758 C67.633264,14.0923879 67.5844456,13.7832046 67.6820839,13.4740167 C68.0889101,11.2771552 68.430639,9.04778098 68.7072808,6.78582726 Z M81.8395652,19.4787415 C82.5230333,19.3648302 82.8647622,18.8807143 82.8647622,18.0263792 C82.8647622,17.1720442 82.5230333,16.6797919 81.8395652,16.5496075 L73.3938953,16.5496075 C72.6778812,16.6797919 72.3198795,17.1720442 72.3198795,18.0263792 C72.3198795,18.8807143 72.6778812,19.3648302 73.3938953,19.4787415 L81.8395652,19.4787415 Z" id="Eva妈妈"></path>
                    <path d="M0.855,34.468 C0.855,34.791 1.1115,35.0475 1.444,35.0475 C1.767,35.0475 2.0235,34.791 2.0235,34.468 L2.0235,32.2925 L4.8925,32.2925 C5.187,32.2925 5.4245,32.055 5.4245,31.7605 C5.4245,31.466 5.187,31.2285 4.8925,31.2285 L2.0235,31.2285 L2.0235,29.414 L5.32,29.414 C5.6145,29.414 5.852,29.1765 5.852,28.882 C5.852,28.5875 5.6145,28.35 5.32,28.35 L1.444,28.35 C1.1115,28.35 0.855,28.6065 0.855,28.939 L0.855,34.468 Z M6.70588256,28.692 C6.70588256,29.034 6.99088256,29.262 7.36138256,29.262 C7.73188256,29.262 8.01688256,29.034 8.01688256,28.692 L8.01688256,28.635 C8.01688256,28.293 7.73188256,28.0745 7.36138256,28.0745 C6.99088256,28.0745 6.70588256,28.293 6.70588256,28.635 L6.70588256,28.692 Z M6.79138256,34.4775 C6.79138256,34.8005 7.04788256,35.0475 7.36138256,35.0475 C7.68438256,35.0475 7.94088256,34.8005 7.94088256,34.4775 L7.94088256,30.5065 C7.94088256,30.1835 7.68438256,29.927 7.36138256,29.927 C7.03838256,29.927 6.79138256,30.1835 6.79138256,30.5065 L6.79138256,34.4775 Z M9.21276512,34.4775 C9.21276512,34.8005 9.46926512,35.0475 9.78276512,35.0475 C10.1057651,35.0475 10.3622651,34.8005 10.3622651,34.4775 L10.3622651,32.169 C10.3622651,31.39 10.8277651,30.9245 11.4927651,30.9245 C12.1767651,30.9245 12.5662651,31.371 12.5662651,32.15 L12.5662651,34.4775 C12.5662651,34.8005 12.8227651,35.0475 13.1457651,35.0475 C13.4687651,35.0475 13.7157651,34.8005 13.7157651,34.4775 L13.7157651,31.7985 C13.7157651,30.6395 13.0602651,29.8795 11.9297651,29.8795 C11.1507651,29.8795 10.6852651,30.288 10.3622651,30.7535 L10.3622651,30.5065 C10.3622651,30.1835 10.1057651,29.927 9.78276512,29.927 C9.45976512,29.927 9.21276512,30.1835 9.21276512,30.5065 L9.21276512,34.4775 Z M19.8041477,28.5875 C19.8041477,28.2645 19.5476477,28.0175 19.2246477,28.0175 C18.9111477,28.0175 18.6546477,28.2645 18.6546477,28.5875 L18.6546477,30.763 C18.2936477,30.288 17.7711477,29.8795 16.9446477,29.8795 C15.7476477,29.8795 14.6171477,30.82 14.6171477,32.4825 L14.6171477,32.5015 C14.6171477,34.164 15.7666477,35.1045 16.9446477,35.1045 C17.7616477,35.1045 18.2841477,34.6865 18.6546477,34.164 L18.6546477,34.4775 C18.6546477,34.8005 18.9111477,35.0475 19.2341477,35.0475 C19.5476477,35.0475 19.8041477,34.8005 19.8041477,34.4775 L19.8041477,28.5875 Z M17.2201477,30.877 C17.9896477,30.877 18.6736477,31.5135 18.6736477,32.4825 L18.6736477,32.5015 C18.6736477,33.461 17.9896477,34.107 17.2201477,34.107 C16.4411477,34.107 15.7761477,33.4705 15.7761477,32.5015 L15.7761477,32.4825 C15.7761477,31.485 16.4316477,30.877 17.2201477,30.877 Z M25.3214128,35.0855 C25.6254128,35.0855 25.8629128,35.038 26.1099128,34.9525 C26.2714128,34.886 26.4139128,34.715 26.4139128,34.506 C26.4139128,34.24 26.1859128,34.031 25.9294128,34.031 C25.8914128,34.031 25.7774128,34.0595 25.6444128,34.0595 C25.2549128,34.0595 25.0269128,33.879 25.0269128,33.4325 L25.0269128,30.972 L25.9294128,30.972 C26.2049128,30.972 26.4329128,30.7535 26.4329128,30.478 C26.4329128,30.2025 26.2049128,29.984 25.9294128,29.984 L25.0269128,29.984 L25.0269128,29.129 C25.0269128,28.8155 24.7704128,28.559 24.4569128,28.559 C24.1339128,28.559 23.8774128,28.8155 23.8774128,29.129 L23.8774128,29.984 L23.6874128,29.984 C23.4119128,29.984 23.1934128,30.2025 23.1934128,30.478 C23.1934128,30.7535 23.4119128,30.972 23.6874128,30.972 L23.8774128,30.972 L23.8774128,33.613 C23.8774128,34.715 24.4759128,35.0855 25.3214128,35.0855 Z M27.3152954,34.4775 C27.3152954,34.8005 27.5717954,35.0475 27.8852954,35.0475 C28.2082954,35.0475 28.4647954,34.8005 28.4647954,34.4775 L28.4647954,32.169 C28.4647954,31.39 28.9302954,30.9245 29.5952954,30.9245 C30.2792954,30.9245 30.6687954,31.371 30.6687954,32.15 L30.6687954,34.4775 C30.6687954,34.8005 30.9252954,35.0475 31.2482954,35.0475 C31.5712954,35.0475 31.8182954,34.8005 31.8182954,34.4775 L31.8182954,31.7985 C31.8182954,30.6395 31.1627954,29.8795 30.0322954,29.8795 C29.2532954,29.8795 28.7877954,30.288 28.4647954,30.7535 L28.4647954,28.5875 C28.4647954,28.274 28.2082954,28.0175 27.8852954,28.0175 C27.5622954,28.0175 27.3152954,28.274 27.3152954,28.5875 L27.3152954,34.4775 Z M33.8406779,32.1405 C33.9451779,31.3615 34.4391779,30.82 35.1421779,30.82 C35.9021779,30.82 36.3391779,31.3995 36.4151779,32.1405 L33.8406779,32.1405 Z M37.0801779,34.449 C37.1656779,34.3635 37.2321779,34.24 37.2321779,34.0975 C37.2321779,33.8315 37.0326779,33.632 36.7761779,33.632 C36.6431779,33.632 36.5671779,33.67 36.4816779,33.7365 C36.1586779,34.0025 35.7786779,34.1735 35.2941779,34.1735 C34.5531779,34.1735 33.9736779,33.7175 33.8501779,32.9005 L36.9946779,32.9005 C37.2891779,32.9005 37.5361779,32.6725 37.5361779,32.3495 C37.5361779,31.1905 36.7476779,29.8795 35.1516779,29.8795 C33.7171779,29.8795 32.7006779,31.0575 32.7006779,32.492 L32.7006779,32.511 C32.7006779,34.0595 33.8216779,35.114 35.2751779,35.114 C36.0541779,35.114 36.6241779,34.8575 37.0801779,34.449 Z M41.1059431,34.4775 C41.1059431,34.8005 41.3624431,35.0475 41.6759431,35.0475 C41.9989431,35.0475 42.2554431,34.791 42.2554431,34.4775 L42.2554431,32.9955 C42.2554431,31.808 42.8159431,31.181 43.6329431,31.0385 C43.8894431,30.991 44.0889431,30.7915 44.0889431,30.4875 C44.0889431,30.155 43.8799431,29.9175 43.5189431,29.9175 C43.0154431,29.9175 42.5214431,30.3925 42.2554431,31.0195 L42.2554431,30.5065 C42.2554431,30.1835 41.9989431,29.927 41.6759431,29.927 C41.3529431,29.927 41.1059431,30.1835 41.1059431,30.5065 L41.1059431,34.4775 Z M44.7813256,28.692 C44.7813256,29.034 45.0663256,29.262 45.4368256,29.262 C45.8073256,29.262 46.0923256,29.034 46.0923256,28.692 L46.0923256,28.635 C46.0923256,28.293 45.8073256,28.0745 45.4368256,28.0745 C45.0663256,28.0745 44.7813256,28.293 44.7813256,28.635 L44.7813256,28.692 Z M44.8668256,34.4775 C44.8668256,34.8005 45.1233256,35.0475 45.4368256,35.0475 C45.7598256,35.0475 46.0163256,34.8005 46.0163256,34.4775 L46.0163256,30.5065 C46.0163256,30.1835 45.7598256,29.927 45.4368256,29.927 C45.1138256,29.927 44.8668256,30.1835 44.8668256,30.5065 L44.8668256,34.4775 Z M49.5207082,36.539 C50.4232082,36.539 51.1262082,36.3205 51.5822082,35.8645 C52.0002082,35.4465 52.2187082,34.8195 52.2187082,33.974 L52.2187082,30.5065 C52.2187082,30.1835 51.9622082,29.927 51.6392082,29.927 C51.3257082,29.927 51.0692082,30.1835 51.0692082,30.497 L51.0692082,30.7345 C50.6797082,30.269 50.1572082,29.8795 49.3117082,29.8795 C48.1432082,29.8795 47.0317082,30.7535 47.0317082,32.2355 L47.0317082,32.2545 C47.0317082,33.727 48.1337082,34.601 49.3117082,34.601 C50.1382082,34.601 50.6607082,34.221 51.0787082,33.6795 L51.0787082,34.069 C51.0787082,35.076 50.5182082,35.608 49.4922082,35.608 C48.9127082,35.608 48.4092082,35.4655 47.9532082,35.209 C47.8962082,35.1805 47.8297082,35.1615 47.7442082,35.1615 C47.4782082,35.1615 47.2597082,35.38 47.2597082,35.6365 C47.2597082,35.855 47.3832082,36.0165 47.5827082,36.0925 C48.1907082,36.387 48.8177082,36.539 49.5207082,36.539 Z M49.6157082,33.6225 C48.8272082,33.6225 48.1907082,33.062 48.1907082,32.245 L48.1907082,32.226 C48.1907082,31.3995 48.8177082,30.8485 49.6157082,30.8485 C50.4137082,30.8485 51.0882082,31.409 51.0882082,32.226 L51.0882082,32.245 C51.0882082,33.062 50.4137082,33.6225 49.6157082,33.6225 Z M53.4335907,34.4775 C53.4335907,34.8005 53.6900907,35.0475 54.0035907,35.0475 C54.3265907,35.0475 54.5830907,34.8005 54.5830907,34.4775 L54.5830907,32.169 C54.5830907,31.39 55.0485907,30.9245 55.7135907,30.9245 C56.3975907,30.9245 56.7870907,31.371 56.7870907,32.15 L56.7870907,34.4775 C56.7870907,34.8005 57.0435907,35.0475 57.3665907,35.0475 C57.6895907,35.0475 57.9365907,34.8005 57.9365907,34.4775 L57.9365907,31.7985 C57.9365907,30.6395 57.2810907,29.8795 56.1505907,29.8795 C55.3715907,29.8795 54.9060907,30.288 54.5830907,30.7535 L54.5830907,28.5875 C54.5830907,28.274 54.3265907,28.0175 54.0035907,28.0175 C53.6805907,28.0175 53.4335907,28.274 53.4335907,28.5875 L53.4335907,34.4775 Z M60.7759733,35.0855 C61.0799733,35.0855 61.3174733,35.038 61.5644733,34.9525 C61.7259733,34.886 61.8684733,34.715 61.8684733,34.506 C61.8684733,34.24 61.6404733,34.031 61.3839733,34.031 C61.3459733,34.031 61.2319733,34.0595 61.0989733,34.0595 C60.7094733,34.0595 60.4814733,33.879 60.4814733,33.4325 L60.4814733,30.972 L61.3839733,30.972 C61.6594733,30.972 61.8874733,30.7535 61.8874733,30.478 C61.8874733,30.2025 61.6594733,29.984 61.3839733,29.984 L60.4814733,29.984 L60.4814733,29.129 C60.4814733,28.8155 60.2249733,28.559 59.9114733,28.559 C59.5884733,28.559 59.3319733,28.8155 59.3319733,29.129 L59.3319733,29.984 L59.1419733,29.984 C58.8664733,29.984 58.6479733,30.2025 58.6479733,30.478 C58.6479733,30.7535 58.8664733,30.972 59.1419733,30.972 L59.3319733,30.972 L59.3319733,33.613 C59.3319733,34.715 59.9304733,35.0855 60.7759733,35.0855 Z M67.0722384,35.0855 C67.3762384,35.0855 67.6137384,35.038 67.8607384,34.9525 C68.0222384,34.886 68.1647384,34.715 68.1647384,34.506 C68.1647384,34.24 67.9367384,34.031 67.6802384,34.031 C67.6422384,34.031 67.5282384,34.0595 67.3952384,34.0595 C67.0057384,34.0595 66.7777384,33.879 66.7777384,33.4325 L66.7777384,30.972 L67.6802384,30.972 C67.9557384,30.972 68.1837384,30.7535 68.1837384,30.478 C68.1837384,30.2025 67.9557384,29.984 67.6802384,29.984 L66.7777384,29.984 L66.7777384,29.129 C66.7777384,28.8155 66.5212384,28.559 66.2077384,28.559 C65.8847384,28.559 65.6282384,28.8155 65.6282384,29.129 L65.6282384,29.984 L65.4382384,29.984 C65.1627384,29.984 64.9442384,30.2025 64.9442384,30.478 C64.9442384,30.7535 65.1627384,30.972 65.4382384,30.972 L65.6282384,30.972 L65.6282384,33.613 C65.6282384,34.715 66.2267384,35.0855 67.0722384,35.0855 Z M73.521621,30.5065 C73.521621,30.1835 73.255621,29.927 72.942121,29.927 C72.619121,29.927 72.362621,30.1835 72.362621,30.5065 L72.362621,32.815 C72.362621,33.594 71.897121,34.05 71.232121,34.05 C70.548121,34.05 70.158621,33.613 70.158621,32.834 L70.158621,30.5065 C70.158621,30.1835 69.902121,29.927 69.579121,29.927 C69.265621,29.927 69.009121,30.1835 69.009121,30.5065 L69.009121,33.176 C69.009121,34.3445 69.664621,35.1045 70.795121,35.1045 C71.574121,35.1045 72.039621,34.696 72.362621,34.221 L72.362621,34.4775 C72.362621,34.8005 72.628621,35.0475 72.942121,35.0475 C73.265121,35.0475 73.521621,34.791 73.521621,34.4775 L73.521621,30.5065 Z M76.4085036,35.0855 C76.7125036,35.0855 76.9500036,35.038 77.1970036,34.9525 C77.3585036,34.886 77.5010036,34.715 77.5010036,34.506 C77.5010036,34.24 77.2730036,34.031 77.0165036,34.031 C76.9785036,34.031 76.8645036,34.0595 76.7315036,34.0595 C76.3420036,34.0595 76.1140036,33.879 76.1140036,33.4325 L76.1140036,30.972 L77.0165036,30.972 C77.2920036,30.972 77.5200036,30.7535 77.5200036,30.478 C77.5200036,30.2025 77.2920036,29.984 77.0165036,29.984 L76.1140036,29.984 L76.1140036,29.129 C76.1140036,28.8155 75.8575036,28.559 75.5440036,28.559 C75.2210036,28.559 74.9645036,28.8155 74.9645036,29.129 L74.9645036,29.984 L74.7745036,29.984 C74.4990036,29.984 74.2805036,30.2025 74.2805036,30.478 C74.2805036,30.7535 74.4990036,30.972 74.7745036,30.972 L74.9645036,30.972 L74.9645036,33.613 C74.9645036,34.715 75.5630036,35.0855 76.4085036,35.0855 Z M80.6443861,35.114 C82.1928861,35.114 83.3328861,33.9265 83.3328861,32.5015 L83.3328861,32.4825 C83.3328861,31.048 82.2023861,29.8795 80.6633861,29.8795 C79.1243861,29.8795 77.9843861,31.067 77.9843861,32.5015 L77.9843861,32.5205 C77.9843861,33.9455 79.1148861,35.114 80.6443861,35.114 Z M80.6633861,34.107 C79.7703861,34.107 79.1338861,33.3755 79.1338861,32.5015 L79.1338861,32.4825 C79.1338861,31.6085 79.7228861,30.8865 80.6443861,30.8865 C81.5468861,30.8865 82.1833861,31.618 82.1833861,32.5015 L82.1833861,32.5205 C82.1833861,33.385 81.5943861,34.107 80.6633861,34.107 Z M84.2722687,34.4775 C84.2722687,34.8005 84.5287687,35.0475 84.8422687,35.0475 C85.1652687,35.0475 85.4217687,34.791 85.4217687,34.4775 L85.4217687,32.9955 C85.4217687,31.808 85.9822687,31.181 86.7992687,31.0385 C87.0557687,30.991 87.2552687,30.7915 87.2552687,30.4875 C87.2552687,30.155 87.0462687,29.9175 86.6852687,29.9175 C86.1817687,29.9175 85.6877687,30.3925 85.4217687,31.0195 L85.4217687,30.5065 C85.4217687,30.1835 85.1652687,29.927 84.8422687,29.927 C84.5192687,29.927 84.2722687,30.1835 84.2722687,30.5065 L84.2722687,34.4775 Z" id="Find-the-right-tutor"></path>
                </g>
            </g>
        </g>
    </g>
</svg>