<?xml version="1.0" encoding="UTF-8"?>
<svg width="101px" height="28px" viewBox="0 0 101 28" version="1.1" xmlns="http://www.w3.org/2000/svg" xmlns:xlink="http://www.w3.org/1999/xlink">
    <g id="Page-1" stroke="none" stroke-width="1" fill="none" fill-rule="evenodd">
        <g id="Artboard" transform="translate(-214.000000, -115.000000)" fill="#FFFFFF">
            <g id="evasmomlogo" transform="translate(214.000000, 115.000000)">
                <g id="EvasMom">
                    <g id="Page-1">
                        <g id="Sign-up-2">
                            <g id="EvasMom">
                                <g id="EvaText">
                                    <path d="M0.0171339537,22.2607728 C0.0932842551,23.3508677 0.42643685,24.010652 1.01660172,24.2401457 C1.60676659,24.4696394 1.99703105,24.5652603 2.18740681,24.5270113 L12.0107471,24.5270113 C12.9816636,24.4887624 13.5765789,24.2592722 13.795511,23.8385338 C14.0144431,23.4177955 14.1048702,22.9683771 14.066795,22.4902653 C13.9906447,21.5722907 13.6670109,21.0081273 13.0958835,20.7977582 C12.5247563,20.5873889 12.1249732,20.5013301 11.8965222,20.5395791 L4.35767966,20.5395791 L4.35767966,16.0644752 L11.5538476,16.0644752 C12.524764,16.0453508 13.1196793,15.8062985 13.3386114,15.3473111 C13.5575436,14.8883239 13.6479707,14.4389056 13.6098955,13.9990428 C13.5527828,13.0236947 13.2862607,12.426064 12.8103213,12.2061325 C12.3343819,11.9862012 11.8774869,11.8953612 11.4396227,11.9336102 L4.35767966,11.9336102 L4.35767966,7.68799888 L11.7822974,7.68799888 C13.1720404,7.72624782 13.8573829,7.03777719 13.8383453,5.62256634 C13.7812326,4.70459174 13.5242291,4.14042831 13.0673274,3.93005913 C12.6104255,3.71968994 12.1820864,3.63363111 11.7822974,3.67188006 L2.18740681,3.67188006 C1.14034011,3.78662688 0.50259086,4.21213998 0.274139944,4.94843211 C0.0456890284,5.68472425 -0.0399787776,6.10067525 0.0171339537,6.1962976 L0.0171339537,22.2607728 Z M19.301252,22.9492503 C19.6439284,23.7142292 20.0579894,24.1732096 20.5434476,24.3262054 C21.0289058,24.4792012 21.3763363,24.5461358 21.5857496,24.5270113 C22.4805158,24.4505134 23.089709,24.187556 23.4133479,23.7381308 C23.7369867,23.2887058 23.889285,23.0257482 23.8702475,22.9492503 L28.0965683,12.0483564 C28.3821319,11.2260042 28.4963556,10.8052722 28.439243,10.7861477 C28.3630926,9.81079966 28.0489773,9.21316891 27.4968876,8.99323749 C26.9447979,8.77330607 26.4974216,8.6824662 26.1547451,8.72071514 C25.4693924,8.79721302 24.9887009,9.05060847 24.712656,9.48090906 C24.4366112,9.91120966 24.3081094,10.155043 24.327147,10.2124164 L21.5857496,18.5888929 L18.8443524,10.2124164 C18.596864,9.504811 18.2922673,9.07451685 17.9305533,8.92152108 C17.5688393,8.76852532 17.2642427,8.70159067 17.0167541,8.72071514 C15.9696875,8.8163375 15.3319382,9.16535386 15.1034874,9.7677747 C14.8750364,10.3701955 14.7893687,10.7096498 14.8464813,10.7861477 C14.9226316,11.5511265 14.9987808,11.9718585 15.0749311,12.0483564 L19.301252,22.9492503 Z M42.7545783,13.4253115 C42.7165032,12.2395943 42.3833505,11.3168524 41.7551105,10.6570581 C41.1268705,9.99726389 40.3986942,9.5191593 39.5705596,9.22272999 C38.7424251,8.92630069 38.0142486,8.74940199 37.3860086,8.69202858 C36.7577686,8.63465516 36.4341346,8.60596889 36.4150971,8.60596889 C34.8730534,8.64421783 33.6689448,8.90717536 32.802735,9.39484938 C31.9365253,9.88252338 31.3178133,10.4514679 30.9465806,11.1016999 C30.5753479,11.7519319 30.3516597,12.3208763 30.2755094,12.8085504 C30.1993591,13.2962244 30.1708031,13.5591819 30.1898408,13.5974309 C30.3231038,14.2094139 30.9085004,14.5154009 31.9460484,14.5154009 C32.9835963,14.5154009 33.5975488,14.2094139 33.7879246,13.5974309 C33.9211877,12.8898255 34.3923607,12.4595313 35.2014576,12.3065355 C36.0105547,12.1535397 36.4722089,12.0866051 36.5864344,12.1057295 C37.7477265,12.1822274 38.4568656,12.4356229 38.713873,12.8659235 C38.9708802,13.2962241 39.0803446,13.5400574 39.0422694,13.5974309 L39.0422694,14.8596396 C36.4341215,15.1847556 34.2638703,15.8062917 32.5314509,16.7242662 C30.7990315,17.6422408 29.9042788,18.9713716 29.8471661,20.7116985 C29.9613915,22.4137764 30.5705848,23.5038549 31.6747643,23.9819667 C32.7789437,24.4600784 33.6546591,24.6800065 34.3019366,24.6417576 C35.7868676,24.5652597 36.9433831,24.2640538 37.7715176,23.7381308 C38.5996522,23.2122079 39.0232319,22.911002 39.0422694,22.8345041 L39.2707192,22.8345041 C39.5372453,23.7142298 40.0084182,24.2401449 40.6842522,24.4122651 C41.3600862,24.5843854 41.8407778,24.6608821 42.1263414,24.6417576 L43.5541525,24.6417576 C44.3346932,24.4887618 44.7392356,23.9293794 44.767792,22.9635937 C44.7963483,21.9978078 44.4679551,21.4384255 43.7826023,21.2854297 C43.2876254,21.2663053 42.9830287,21.1563411 42.8688032,20.9555342 C42.7545777,20.7547273 42.7165032,20.6352012 42.7545783,20.5969522 L42.7545783,13.4253115 Z M38.985157,18.2446541 C38.8328564,19.6407404 38.2284224,20.6017307 37.1718369,21.1276536 C36.1152514,21.6535766 35.5203361,21.8974099 35.3870731,21.859161 C34.3971191,21.9739078 33.7926851,21.8209144 33.5737531,21.400176 C33.3548209,20.9794377 33.2739124,20.7308232 33.3310251,20.6543253 C33.426213,19.9849688 33.8117182,19.4925211 34.4875521,19.1769673 C35.1633861,18.8614136 35.5584099,18.7036391 35.6726353,18.7036391 C37.3098668,18.2255273 38.4140298,17.9386645 38.985157,17.8430421 L38.985157,18.2446541 Z M71.8049241,23.5803548 C72.0904879,20.7116841 72.2427861,17.8430566 72.2618237,14.9743859 C72.2998988,13.7695442 71.7478174,13.1958187 70.6055628,13.2531921 L69.5775389,13.2531921 L70.4342255,2.75391004 C70.3771128,1.79768649 69.7869567,1.3195819 68.6637398,1.3195819 L57.0699137,1.3195819 C56.2322603,1.47257766 55.8134399,2.02239796 55.8134399,2.96905926 C55.8134399,3.91572058 56.2322603,4.45597878 57.0699137,4.58985008 L66.4363544,4.58985008 C66.8551812,4.64722348 66.9694049,4.95321043 66.7790291,5.50782009 L66.1507922,13.2531921 L61.8102465,13.2531921 C60.9535556,13.3679389 60.4205114,13.0428278 60.2110981,12.2778489 L60.9535599,7.34376012 C60.9725975,6.3684121 60.5014246,5.81381077 59.5400269,5.67993947 C58.5786293,5.54606817 57.9646766,6.0050486 57.6981506,7.05689449 L56.4987892,14.9170128 C56.4797517,15.8923608 56.9747213,16.4087138 57.9837129,16.4660871 L67.9212781,16.4660871 C68.6827811,16.542585 68.9873778,16.848572 68.8350771,17.3840571 C68.8921898,19.6789936 68.7208542,21.7635297 68.3210651,23.6377279 C67.9403136,24.2879599 67.2740083,24.5652606 66.3221296,24.4696382 C65.5796641,24.3740159 64.8372098,24.3070813 64.0947443,24.2688323 C63.2380533,24.3835791 62.7668804,24.885589 62.6812113,25.7748768 C62.5955422,26.6641648 63.0667152,27.2617955 64.0947443,27.567787 C65.7890886,27.892903 67.5976312,27.8546547 69.5204264,27.4530408 C70.3200046,27.1661737 70.8816047,26.6641638 71.2052435,25.9469962 C71.5288823,25.2298285 71.7287738,24.4409559 71.8049241,23.5803548 Z M54.6140786,17.0398184 C55.318469,13.5974136 55.6611402,10.002067 55.6421026,6.25367073 C55.6611402,5.10620247 55.0900214,4.55160113 53.9287293,4.58985008 L51.0731071,4.58985008 C51.168295,3.55712865 51.2444442,2.54354689 51.3015569,1.5490744 C51.1682939,0.516352969 50.6495277,0 49.7452428,0 C48.840958,0 48.2745985,0.516352969 48.0461477,1.5490744 C48.02711,2.62004477 47.9890354,3.63362653 47.9319228,4.58985008 L46.7896738,4.58985008 C45.9900956,4.74284585 45.5903125,5.31179031 45.5903125,6.29670058 C45.5903125,7.28161083 45.9900956,7.84099321 46.7896738,7.97486451 L47.6463606,7.97486451 C47.2846465,10.8052862 46.7325651,13.6356655 45.9900996,16.4660871 C45.8568366,16.9824478 45.9520231,17.4414282 46.2756618,17.8430421 L49.3597338,21.5722953 C49.3406962,21.6296688 49.3026216,21.6870413 49.2455089,21.7444147 C48.160367,23.0831277 47.1323534,24.2210167 46.1614369,25.1581157 C45.5331969,26.1143393 45.5331969,26.8984308 46.1614369,27.5104139 C46.789677,28.1223969 47.5130941,28.1606453 48.3317099,27.6251602 C49.5310771,26.5924387 50.5971655,25.4354256 51.5300066,24.1540861 C52.1201715,24.8616915 52.6341785,25.4832274 53.0720427,26.0187127 C53.7002827,26.6880692 54.3475506,26.7406606 55.0138657,26.1764887 C55.6801809,25.6123168 55.7944046,24.8234442 55.3565404,23.8098473 C54.7663755,22.8918726 54.0619958,21.993036 53.24338,21.1133103 C53.87162,19.8128463 54.328515,18.4550292 54.6140786,17.0398184 Z M50.67332,7.97486451 L52.1011311,7.97486451 C52.4818826,8.1087358 52.5770691,8.49121948 52.3866934,9.12232703 C52.3486182,12.3161137 51.8346113,15.4142315 50.8446573,18.4167735 C50.3496804,17.8047903 49.9498973,17.3075616 49.645296,16.9250721 C49.4168451,16.5617072 49.3597332,16.1983477 49.4739587,15.8349828 C49.9498981,13.2531792 50.3496812,10.633166 50.67332,7.97486451 Z M66.0365673,22.8918772 C66.8361456,22.7580059 67.2359286,22.1890615 67.2359286,21.1850267 C67.2359286,20.180992 66.8361456,19.6024855 66.0365673,19.4494897 L56.1561146,19.4494897 C55.3184613,19.6024855 54.8996409,20.180992 54.8996409,21.1850267 C54.8996409,22.1890615 55.3184613,22.7580059 56.1561146,22.8918772 L66.0365673,22.8918772 Z M100.341258,23.5803548 C100.626822,20.7116841 100.77912,17.8430566 100.798158,14.9743859 C100.836233,13.7695442 100.284151,13.1958187 99.1418967,13.2531921 L98.1138727,13.2531921 L98.9705594,2.75391004 C98.9134467,1.79768649 98.3232906,1.3195819 97.2000736,1.3195819 L85.6062476,1.3195819 C84.7685942,1.47257766 84.3497738,2.02239796 84.3497738,2.96905926 C84.3497738,3.91572058 84.7685942,4.45597878 85.6062476,4.58985008 L94.9726883,4.58985008 C95.391515,4.64722348 95.5057387,4.95321043 95.3153629,5.50782009 L94.6871261,13.2531921 L90.3465804,13.2531921 C89.4898895,13.3679389 88.9568454,13.0428278 88.7474319,12.2778489 L89.4898937,7.34376012 C89.5089313,6.3684121 89.0377584,5.81381077 88.0763607,5.67993947 C87.1149632,5.54606817 86.5010105,6.0050486 86.2344845,7.05689449 L85.0351231,14.9170128 C85.0160856,15.8923608 85.5110551,16.4087138 86.5200467,16.4660871 L96.4576119,16.4660871 C97.2191149,16.542585 97.5237116,16.848572 97.371411,17.3840571 C97.4285236,19.6789936 97.2571881,21.7635297 96.857399,23.6377279 C96.4766474,24.2879599 95.8103423,24.5652606 94.8584634,24.4696382 C94.115998,24.3740159 93.3735436,24.3070813 92.6310781,24.2688323 C91.7743872,24.3835791 91.3032142,24.885589 91.2175452,25.7748768 C91.1318761,26.6641648 91.603049,27.2617955 92.6310781,27.567787 C94.3254224,27.892903 96.1339651,27.8546547 98.0567603,27.4530408 C98.8563384,27.1661737 99.4179386,26.6641638 99.7415774,25.9469962 C100.065216,25.2298285 100.265108,24.4409559 100.341258,23.5803548 Z M83.1504125,17.0398184 C83.8548028,13.5974136 84.1974741,10.002067 84.1784364,6.25367073 C84.1974741,5.10620247 83.6263554,4.55160113 82.4650632,4.58985008 L79.6094409,4.58985008 C79.7046289,3.55712865 79.780778,2.54354689 79.8378907,1.5490744 C79.7046277,0.516352969 79.1858616,0 78.2815767,0 C77.3772918,0 76.8109324,0.516352969 76.5824815,1.5490744 C76.5634439,2.62004477 76.5253693,3.63362653 76.4682566,4.58985008 L75.3260078,4.58985008 C74.5264295,4.74284585 74.1266464,5.31179031 74.1266464,6.29670058 C74.1266464,7.28161083 74.5264295,7.84099321 75.3260078,7.97486451 L76.1826944,7.97486451 C75.8209805,10.8052862 75.2688989,13.6356655 74.5264335,16.4660871 C74.3931705,16.9824478 74.4883569,17.4414282 74.8119957,17.8430421 L77.8960677,21.5722953 C77.8770301,21.6296688 77.8389556,21.6870413 77.7818428,21.7444147 C76.6967009,23.0831277 75.6686872,24.2210167 74.6977708,25.1581157 C74.0695308,26.1143393 74.0695308,26.8984308 74.6977708,27.5104139 C75.3260108,28.1223969 76.0494279,28.1606453 76.8680437,27.6251602 C78.067411,26.5924387 79.1334993,25.4354256 80.0663406,24.1540861 C80.6565055,24.8616915 81.1705123,25.4832274 81.6083765,26.0187127 C82.2366166,26.6880692 82.8838844,26.7406606 83.5501996,26.1764887 C84.2165148,25.6123168 84.3307385,24.8234442 83.8928742,23.8098473 C83.3027094,22.8918726 82.5983297,21.993036 81.7797139,21.1133103 C82.4079539,19.8128463 82.8648489,18.4550292 83.1504125,17.0398184 Z M79.2096538,7.97486451 L80.637465,7.97486451 C81.0182165,8.1087358 81.113403,8.49121948 80.9230272,9.12232703 C80.8849521,12.3161137 80.3709452,15.4142315 79.3809912,18.4167735 C78.8860143,17.8047903 78.4862311,17.3075616 78.1816299,16.9250721 C77.9531789,16.5617072 77.8960671,16.1983477 78.0102926,15.8349828 C78.486232,13.2531792 78.8860151,10.633166 79.2096538,7.97486451 Z M94.5729012,22.8918772 C95.3724795,22.7580059 95.7722626,22.1890615 95.7722626,21.1850267 C95.7722626,20.180992 95.3724795,19.6024855 94.5729012,19.4494897 L84.6924484,19.4494897 C83.8547951,19.6024855 83.4359747,20.180992 83.4359747,21.1850267 C83.4359747,22.1890615 83.8547951,22.7580059 84.6924484,22.8918772 L94.5729012,22.8918772 Z" id="Eva妈妈"></path>
                                </g>
                            </g>
                        </g>
                    </g>
                </g>
            </g>
        </g>
    </g>
</svg>