<?xml version="1.0" encoding="UTF-8"?>
<svg width="60px" height="54px" viewBox="0 0 60 54" version="1.1" xmlns="http://www.w3.org/2000/svg" xmlns:xlink="http://www.w3.org/1999/xlink">
    <!-- Generator: Sketch 41.2 (35397) - http://www.bohemiancoding.com/sketch -->
    <title>Group</title>
    <desc>Created with Sketch.</desc>
    <defs></defs>
    <g id="Page-1" stroke="none" stroke-width="1" fill="none" fill-rule="evenodd">
        <g id="noun_737329_cc" fill="#FFFFFF">
            <g id="Group">
                <g id="Filter">
                    <path d="M32.5,51 L32.5,45.8 C36.3,44.7 39.1,41.2 39.1,37.1 C39.1,33 36.3,29.5 32.5,28.4 L32.5,3 C32.5,1.6 31.4,0.5 30,0.5 C28.6,0.5 27.5,1.6 27.5,3 L27.5,28.4 C23.7,29.5 20.9,33 20.9,37.1 C20.9,41.2 23.7,44.7 27.5,45.8 L27.5,51 C27.5,52.4 28.6,53.5 30,53.5 C31.4,53.5 32.5,52.4 32.5,51 Z" id="Shape"></path>
                    <path d="M47.5,3 L47.5,8.4 C43.7,9.5 40.9,13 40.9,17.1 C40.9,21.2 43.7,24.7 47.5,25.8 L47.5,51 C47.5,52.4 48.6,53.5 50,53.5 C51.4,53.5 52.5,52.4 52.5,51 L52.5,25.8 C56.3,24.7 59.1,21.2 59.1,17.1 C59.1,13 56.3,9.5 52.5,8.4 L52.5,3 C52.5,1.6 51.4,0.5 50,0.5 C48.6,0.5 47.5,1.6 47.5,3 Z" id="Shape"></path>
                    <path d="M12.5,51 L12.5,25.8 C16.3,24.7 19.1,21.2 19.1,17.1 C19.1,13 16.3,9.5 12.5,8.4 L12.5,3 C12.5,1.6 11.4,0.5 10,0.5 C8.6,0.5 7.5,1.6 7.5,3 L7.5,8.4 C3.7,9.5 0.9,13 0.9,17.1 C0.9,21.2 3.7,24.7 7.5,25.8 L7.5,51 C7.5,52.4 8.6,53.5 10,53.5 C11.4,53.5 12.5,52.4 12.5,51 Z" id="Shape"></path>
                </g>
            </g>
        </g>
    </g>
</svg>