<?xml version="1.0" encoding="UTF-8"?>
<svg width="137px" height="29px" viewBox="0 0 137 29" version="1.1" xmlns="http://www.w3.org/2000/svg" xmlns:xlink="http://www.w3.org/1999/xlink">
    <!-- Generator: Sketch 46.2 (44496) - http://www.bohemiancoding.com/sketch -->
    <title>Group 30</title>
    <desc>Created with Sketch.</desc>
    <defs></defs>
    <g id="Page-1" stroke="none" stroke-width="1" fill="none" fill-rule="evenodd">
        <g id="A4" transform="translate(-222.000000, -329.000000)" fill="#5087F5">
            <g id="Group-30" transform="translate(222.000000, 329.000000)">
                <g id="EvaLogo">
                    <path d="M23.3978585,25.5723539 C25.4545455,23.7575758 21.6477919,17.9520909 18.7529213,16.2136264 L17.5616797,22.3919102 L14.9328411,22.3919102 L12.7553915,27.4286272 C16.5223439,27.3830745 21.3411715,27.3871321 23.3978585,25.5723539 Z" id="Shape"></path>
                    <path d="M18.6537495,16.2124483 L18.7489859,16.2112702 C18.7273412,16.1983112 18.7037289,16.1873157 18.6812972,16.1747495 C18.9917992,15.7404279 19.2617668,15.2750833 19.4730971,14.7779303 L20.8481213,14.7779303 C21.5446847,14.7779303 22.1440442,14.5254269 22.630458,14.028274 C23.1168718,13.531121 23.3553563,12.9263694 23.3384341,12.2316904 C23.1762962,5.6336147 18.4054266,0.0596897696 12.2603199,0.0596897696 C6.11560672,0.0596897696 1.34473714,5.6336147 1.18299274,12.2316904 C1.16567704,12.926762 1.40416148,13.531121 1.89018177,14.028274 C2.37698913,14.5258196 2.97634856,14.7779303 3.67291205,14.7779303 L5.04832979,14.7779303 C5.26005361,15.2758687 5.53041469,15.7419986 5.84131025,16.1771056 C2.91967899,17.8896522 -0.273918355,23.5590023 1.1357681,25.492244 C2.54545455,27.4254857 7.87118284,27.3626543 11.5728078,27.4254857 L9.53585148,21.822894 L7.02704234,21.8967208 L5.920018,16.3742389 L5.98810019,16.3734536 C7.33518314,18.1299821 9.45084718,19.2695855 11.8337239,19.2695855 L12.6873094,19.2695855 C15.1418102,19.2695855 17.3141438,18.060475 18.6537495,16.2124483 Z M12.6877029,18.4841938 L11.8341175,18.4841938 C8.20687135,18.4841938 5.25611822,15.5393676 5.25611822,11.9198899 L5.25611822,5.08737477 C5.97511341,5.55900249 6.83263423,5.83820924 7.75705662,5.83820924 C9.85501142,5.83820924 11.6180647,4.42450417 12.1532774,2.50107988 C12.6306398,4.50814839 14.4338341,6.00353419 16.5916067,6.00353419 C17.5915885,6.00353419 18.5140433,5.67995281 19.2657021,5.13646175 L19.2657021,11.9198899 C19.2657021,15.5393676 16.314949,18.4841938 12.6877029,18.4841938 Z" id="Shape"></path>
                    <path d="M8.80583722,8.51207529 C8.40718252,8.51207529 8.08251312,8.83644204 8.08251312,9.23424294 C8.08251312,9.63204383 8.40718252,9.95641067 8.80583722,9.95641067 C9.20449191,9.95641067 9.52955488,9.63204383 9.52955488,9.23424294 C9.52955488,8.83644204 9.20449191,8.51207529 8.80583722,8.51207529 Z" id="Shape"></path>
                    <path d="M15.7336924,8.55487914 C15.3354313,8.55487914 15.0103683,8.87924589 15.0103683,9.27704679 C15.0103683,9.67484769 15.3354313,9.99921452 15.7336924,9.99921452 C16.1327406,9.99921452 16.4578036,9.67484769 16.4578036,9.27704679 C16.4578036,8.87924589 16.1327406,8.55487914 15.7336924,8.55487914 Z" id="Shape"></path>
                    <path d="M13.9989738,14.1955623 C12.8604664,14.8399762 11.7837446,14.8419397 10.7074162,14.199882 C10.5196982,14.0887491 10.2792461,14.1492242 10.1678747,14.3357548 C10.0565032,14.5218926 10.1175017,14.7630078 10.304039,14.8741408 C10.9667582,15.2691929 11.641677,15.4667189 12.3256473,15.4667189 C13.0068628,15.4667189 13.6955555,15.2707636 14.3873966,14.8784605 C14.5762951,14.7716472 14.6431967,14.5317101 14.5357606,14.3436087 C14.4287181,14.154722 14.1874789,14.0879637 13.9989738,14.1955623 Z" id="Shape"></path>
                    <path d="M15.7199186,6.63813069 C14.4779104,6.63813069 13.4279492,7.47849982 13.1127247,8.61967397 C12.5259585,8.38012948 11.9872041,8.3856272 11.4484496,8.64009416 C11.1399152,7.48831721 10.0852316,6.63813069 8.8353526,6.63813069 C7.34423453,6.63813069 6.13095474,7.84881198 6.13095474,9.33673657 C6.13095474,10.8246612 7.34423453,12.0353425 8.8353526,12.0353425 C10.2741301,12.0353425 11.4543527,10.9079127 11.5350281,9.49185147 C12.0332481,9.15688187 12.4523667,9.14195948 13.0170948,9.44001556 C13.0725837,10.880424 14.2630383,12.0349498 15.719525,12.0349498 C17.2106431,12.0349498 18.4243164,10.8242685 18.4243164,9.33634389 C18.4243164,7.8484193 17.2110367,6.63813069 15.7199186,6.63813069 Z M8.8353526,11.2499508 C7.77791416,11.2499508 6.91803212,10.3915176 6.91803212,9.33673657 C6.91803212,8.28195553 7.77830771,7.42352239 8.8353526,7.42352239 C9.89239759,7.42352239 10.7526732,8.28195553 10.7526732,9.33673657 C10.7526732,10.3915176 9.89279108,11.2499508 8.8353526,11.2499508 Z M15.7199186,11.2499508 C14.6628736,11.2499508 13.8029916,10.3915176 13.8029916,9.33673657 C13.8029916,9.30689172 13.8037786,9.27743954 13.8045657,9.24798729 C13.8053528,9.23895531 13.8061399,9.22992332 13.8061399,9.22128402 C13.8659578,8.2199096 14.7014404,7.42352239 15.7199186,7.42352239 C16.7777505,7.42352239 17.6376326,8.28195553 17.6376326,9.33673657 C17.6376326,10.3915176 16.7777505,11.2499508 15.7199186,11.2499508 Z" id="Shape"></path>
                </g>
                <g id="EvaText" transform="translate(33.000000, 0.000000)">
                    <path d="M0.0176807639,22.9109699 C0.0962613087,24.0329045 0.44004606,24.7119599 1.04904532,24.9481567 C1.65804457,25.1843535 2.06076385,25.2827673 2.25721522,25.2434011 L12.3940554,25.2434011 C13.3959574,25.204035 14.0098587,24.9678419 14.2357779,24.5348145 C14.4616969,24.1017872 14.5550098,23.639242 14.5157196,23.1471655 C14.437139,22.2023785 14.1031768,21.6217369 13.5138226,21.4052233 C12.9244685,21.1887095 12.5119268,21.1001371 12.2761852,21.1395032 L4.49674967,21.1395032 L4.49674967,16.5336896 L11.9225745,16.5336896 C12.9244765,16.5140066 13.5383778,16.267972 13.7642968,15.7955784 C13.9902159,15.323185 14.0835289,14.86064 14.0442386,14.4079296 C13.9853033,13.4040934 13.7102754,12.7890069 13.219147,12.5626517 C12.7280186,12.3362965 12.2565424,12.2428033 11.8047042,12.2821694 L4.49674967,12.2821694 L4.49674967,7.91255148 L12.1583149,7.91255148 C13.5924099,7.95191761 14.2996243,7.24333799 14.2799791,5.78679138 C14.2210437,4.84200439 13.9558383,4.26136276 13.4843551,4.04484908 C13.0128718,3.82833539 12.5708628,3.73976293 12.1583149,3.77912906 L2.25721522,3.77912906 C1.17673267,3.89722744 0.518630432,4.33516901 0.282888785,5.0929669 C0.0471471387,5.85076481 -0.0412546502,6.27886499 0.0176807639,6.37728029 L0.0176807639,22.9109699 Z M19.9172277,23.6195566 C20.2708403,24.4068792 20.6981156,24.8792656 21.1990665,25.0367301 C21.7000175,25.1941946 22.0585359,25.2630843 22.2746324,25.2434011 C23.1979539,25.1646689 23.8265888,24.8940309 24.1605562,24.4314789 C24.4945235,23.9689269 24.6516822,23.6982888 24.6320371,23.6195566 L28.9932358,12.4002672 C29.2879129,11.5538956 29.4057819,11.1208747 29.3468465,11.1011916 C29.268266,10.0973554 28.944126,9.48226898 28.3744171,9.25591376 C27.8047081,9.02955854 27.3430543,8.9360654 26.9894418,8.97543153 C26.2822169,9.05416377 25.7861846,9.31496044 25.5013301,9.75782934 C25.2164756,10.2006982 25.0838729,10.4516535 25.1035181,10.5107027 L22.2746324,19.1318409 L19.4457468,10.5107027 C19.1903601,9.78242941 18.8760425,9.33956714 18.502785,9.18210264 C18.1295273,9.02463815 17.8152099,8.95574846 17.559823,8.97543153 C16.4793405,9.07384684 15.8212382,9.43305734 15.5854967,10.0530738 C15.349755,10.6730903 15.2613532,11.0224594 15.3202886,11.1011916 C15.3988691,11.8885141 15.4774485,12.3215349 15.556029,12.4002672 L19.9172277,23.6195566 Z M44.1190383,13.8174407 C44.079748,12.5970908 43.7359632,11.6473973 43.0876737,10.9683316 C42.4393841,10.289266 41.687969,9.7971968 40.8334055,9.49210932 C39.9788421,9.18702186 39.2274268,9.00495626 38.5791372,8.94590708 C37.9308477,8.88685789 37.5968854,8.85733375 37.5772403,8.85733375 C35.9859842,8.89669986 34.7434478,9.16733791 33.8495941,9.66925601 C32.9557404,10.1711741 32.3172829,10.7567364 31.9342028,11.4259605 C31.5511227,12.0951846 31.3202957,12.6807469 31.2417151,13.1826651 C31.1631346,13.6845831 31.1336673,13.9552212 31.1533125,13.9945874 C31.2908284,14.6244453 31.8949073,14.9393696 32.9655674,14.9393696 C34.0362273,14.9393696 34.6697734,14.6244453 34.8662248,13.9945874 C35.0037409,13.266314 35.4899507,12.8234518 36.324869,12.6659873 C37.1597874,12.5085228 37.6361748,12.4396331 37.7540456,12.4593161 C38.9523989,12.5380483 39.6841694,12.7988451 39.9493788,13.241714 C40.2145881,13.6845829 40.3275459,13.9355381 40.2882556,13.9945874 L40.2882556,15.2936629 C37.5968718,15.628275 35.3573598,16.267965 33.5696523,17.2127519 C31.7819448,18.1575389 30.8586372,19.5254912 30.7997018,21.3166499 C30.9175725,23.0684424 31.5462076,24.1903602 32.6856255,24.6824367 C33.8250435,25.1745133 34.7287063,25.400865 35.3966409,25.3614989 C36.9289616,25.2827667 38.1223858,24.9727632 38.9769493,24.4314789 C39.8315128,23.8901947 40.2686105,23.5801911 40.2882556,23.5014588 L40.5239961,23.5014588 C40.799028,24.4068798 41.2852379,24.9481558 41.9826402,25.1253034 C42.6800427,25.302451 43.176075,25.381182 43.470752,25.3614989 L44.9441299,25.3614989 C45.7495805,25.2040344 46.1670335,24.6283135 46.1965012,23.6343189 C46.2259688,22.6403242 45.8870954,22.0646033 45.1798704,21.9071388 C44.6690969,21.8874558 44.3547793,21.7742798 44.2369085,21.5676076 C44.1190377,21.3609355 44.079748,21.2379182 44.1190383,21.1985521 L44.1190383,13.8174407 Z M40.2293205,18.7775476 C40.0721594,20.2144111 39.4484357,21.2034701 38.3581305,21.7447543 C37.2678254,22.2860386 36.6539241,22.5369938 36.5164082,22.4976277 C35.4948609,22.6157261 34.8711372,22.458264 34.6452182,22.0252366 C34.4192991,21.5922093 34.3358085,21.3363332 34.3947439,21.257601 C34.4929697,20.5686938 34.8907777,20.0618626 35.5881801,19.737092 C36.2855824,19.4123215 36.6932129,19.2499387 36.8110838,19.2499387 C38.5005655,18.7578622 39.6399664,18.4626206 40.2293205,18.3642052 L40.2293205,18.7775476 Z M74.0964903,24.2690945 C74.3911674,21.3166351 74.5483261,18.3642201 74.5679712,15.4117607 C74.6072615,14.1717277 74.0375611,13.5812448 72.8588528,13.640294 L71.7980207,13.640294 L72.6820475,2.83434679 C72.6231121,1.85019368 72.0141219,1.35812451 70.8550589,1.35812451 L58.89123,1.35812451 C58.026844,1.515589 57.5946574,2.08146856 57.5946574,3.05578014 C57.5946574,4.03009173 58.026844,4.58612989 58.89123,4.72391133 L68.5565892,4.72391133 C68.9887823,4.78296051 69.1066513,5.09788478 68.9101999,5.6686936 L68.2619137,13.640294 L63.7828447,13.640294 C62.8988136,13.7583923 62.348758,13.4237853 62.1326615,12.6364628 L62.898818,7.55825812 C62.9184632,6.55442195 62.4322533,5.98362171 61.4401738,5.84584027 C60.4480945,5.70805883 59.8145482,6.18044525 59.5395164,7.26301367 L58.3018788,15.3527118 C58.2822338,16.356548 58.7929996,16.8879827 59.834192,16.9470319 L70.0889024,16.9470319 C70.8747078,17.0257641 71.1890253,17.3406884 71.0318642,17.8918141 C71.0907996,20.2537816 70.9139961,22.3992032 70.5014482,24.3281434 C70.1085454,24.9973675 69.4209759,25.2827676 68.438719,25.1843522 C67.6725586,25.085937 66.9064099,25.0170473 66.1402495,24.9776812 C65.2562183,25.0957796 64.7700084,25.6124522 64.6816053,26.5277145 C64.5932022,27.442977 65.0794121,28.0580634 66.1402495,28.3729924 C67.8886667,28.7076045 69.7549267,28.6682389 71.7390856,28.2548947 C72.5641814,27.9596488 73.1437042,27.442976 73.4776716,26.7048612 C73.8116389,25.9667464 74.0179097,25.1548322 74.0964903,24.2690945 Z M56.35702,17.5375208 C57.0838901,13.9945696 57.4374973,10.2942094 57.4178521,6.43632918 C57.4374973,5.25534545 56.8481519,4.6845452 55.6497986,4.72391133 L52.7030427,4.72391133 C52.8012685,3.66102597 52.8798478,2.61783932 52.9387832,1.59432007 C52.8012673,0.53143471 52.2659453,0 51.3328013,0 C50.3996573,0 49.8152231,0.53143471 49.5794816,1.59432007 C49.5598364,2.69657156 49.5205467,3.73975822 49.4616113,4.72391133 L48.2829089,4.72391133 C47.4578132,4.88137583 47.0452715,5.46693814 47.0452715,6.48061586 C47.0452715,7.49429356 47.4578132,8.0700145 48.2829089,8.20779594 L49.1669357,8.20779594 C48.793678,11.1208892 48.2239776,14.0339387 47.4578173,16.9470319 C47.3203014,17.4784745 47.4185255,17.9508609 47.7524928,18.3642052 L50.9349892,22.2023832 C50.915344,22.2614325 50.8760543,22.3204808 50.817119,22.3795299 C49.6973461,23.7573443 48.6365247,24.928469 47.6346226,25.8929389 C46.9863331,26.8770921 46.9863331,27.6840855 47.6346226,28.3139435 C48.2829121,28.9438015 49.0294162,28.983167 49.8741571,28.4320413 C51.1118007,27.369156 52.211912,26.1783485 53.1745236,24.8595834 C53.7835229,25.5878567 54.3139337,26.2275466 54.7657719,26.7786724 C55.4140614,27.4675796 56.081986,27.5217072 56.7695658,26.9410568 C57.4571456,26.3604065 57.5750147,25.5484923 57.1231765,24.5052901 C56.5141773,23.560503 55.7873182,22.6354129 54.9425772,21.7299921 C55.5908668,20.3915439 56.062343,18.9940674 56.35702,17.5375208 Z M52.2904969,8.20779594 L53.7638748,8.20779594 C54.1567776,8.34557737 54.2550018,8.73923271 54.0585505,9.38877377 C54.0192602,12.6758452 53.4888494,15.8644535 52.4673022,18.9546943 C51.9565287,18.3248362 51.543987,17.8130843 51.2296648,17.419423 C50.9939231,17.0454448 50.9349886,16.6714722 51.0528595,16.2974941 C51.5439879,13.6402807 51.9565296,10.9437416 52.2904969,8.20779594 Z M68.1440434,23.5605077 C68.9691393,23.4227263 69.3816809,22.837164 69.3816809,21.8038032 C69.3816809,20.7704425 68.9691393,20.1750388 68.1440434,20.0175743 L57.9482681,20.0175743 C57.0838821,20.1750388 56.6516956,20.7704425 56.6516956,21.8038032 C56.6516956,22.837164 57.0838821,23.4227263 57.9482681,23.5605077 L68.1440434,23.5605077 Z M103.543526,24.2690945 C103.838203,21.3166351 103.995362,18.3642201 104.015007,15.4117607 C104.054298,14.1717277 103.484597,13.5812448 102.305889,13.640294 L101.245057,13.640294 L102.129083,2.83434679 C102.070148,1.85019368 101.461158,1.35812451 100.302095,1.35812451 L88.3382661,1.35812451 C87.4738799,1.515589 87.0416934,2.08146856 87.0416934,3.05578014 C87.0416934,4.03009173 87.4738799,4.58612989 88.3382661,4.72391133 L98.0036252,4.72391133 C98.4358183,4.78296051 98.5536873,5.09788478 98.3572359,5.6686936 L97.7089496,13.640294 L93.2298808,13.640294 C92.3458496,13.7583923 91.795794,13.4237853 91.5796974,12.6364628 L92.345854,7.55825812 C92.3654991,6.55442195 91.8792893,5.98362171 90.8872098,5.84584027 C89.8951304,5.70805883 89.2615842,6.18044525 88.9865523,7.26301367 L87.7489148,15.3527118 C87.7292697,16.356548 88.2400356,16.8879827 89.2812279,16.9470319 L99.5359383,16.9470319 C100.321744,17.0257641 100.636061,17.3406884 100.4789,17.8918141 C100.537836,20.2537816 100.361032,22.3992032 99.9484841,24.3281434 C99.5555814,24.9973675 98.8680119,25.2827676 97.885755,25.1843522 C97.1195947,25.085937 96.3534458,25.0170473 95.5872854,24.9776812 C94.7032542,25.0957796 94.2170444,25.6124522 94.1286413,26.5277145 C94.0402382,27.442977 94.526448,28.0580634 95.5872854,28.3729924 C97.3357027,28.7076045 99.2019627,28.6682389 101.186122,28.2548947 C102.011217,27.9596488 102.59074,27.442976 102.924708,26.7048612 C103.258675,25.9667464 103.464946,25.1548322 103.543526,24.2690945 Z M85.804056,17.5375208 C86.5309261,13.9945696 86.8845332,10.2942094 86.864888,6.43632918 C86.8845332,5.25534545 86.295188,4.6845452 85.0968346,4.72391133 L82.1500787,4.72391133 C82.2483044,3.66102597 82.3268838,2.61783932 82.3858191,1.59432007 C82.2483032,0.53143471 81.7129813,0 80.7798372,0 C79.8466932,0 79.2622592,0.53143471 79.0265175,1.59432007 C79.0068723,2.69657156 78.9675826,3.73975822 78.9086473,4.72391133 L77.729945,4.72391133 C76.9048491,4.88137583 76.4923074,5.46693814 76.4923074,6.48061586 C76.4923074,7.49429356 76.9048491,8.0700145 77.729945,8.20779594 L78.6139717,8.20779594 C78.2407141,11.1208892 77.6710136,14.0339387 76.9048532,16.9470319 C76.7673373,17.4784745 76.8655615,17.9508609 77.1995288,18.3642052 L80.3820252,22.2023832 C80.3623801,22.2614325 80.3230904,22.3204808 80.2641549,22.3795299 C79.1443821,23.7573443 78.0835606,24.928469 77.0816586,25.8929389 C76.433369,26.8770921 76.433369,27.6840855 77.0816586,28.3139435 C77.7299481,28.9438015 78.4764522,28.983167 79.3211931,28.4320413 C80.5588367,27.369156 81.6589479,26.1783485 82.6215597,24.8595834 C83.230559,25.5878567 83.7609697,26.2275466 84.2128078,26.7786724 C84.8610974,27.4675796 85.529022,27.5217072 86.2166018,26.9410568 C86.9041816,26.3604065 87.0220506,25.5484923 86.5702125,24.5052901 C85.9612132,23.560503 85.2343541,22.6354129 84.3896132,21.7299921 C85.0379027,20.3915439 85.5093789,18.9940674 85.804056,17.5375208 Z M81.7375328,8.20779594 L83.2109109,8.20779594 C83.6038135,8.34557737 83.7020378,8.73923271 83.5055864,9.38877377 C83.4662962,12.6758452 82.9358854,15.8644535 81.9143382,18.9546943 C81.4035647,18.3248362 80.991023,17.8130843 80.6767008,17.419423 C80.4409591,17.0454448 80.3820246,16.6714722 80.4998954,16.2974941 C80.9910238,13.6402807 81.4035655,10.9437416 81.7375328,8.20779594 Z M97.5910794,23.5605077 C98.4161752,23.4227263 98.8287169,22.837164 98.8287169,21.8038032 C98.8287169,20.7704425 98.4161752,20.1750388 97.5910794,20.0175743 L87.3953041,20.0175743 C86.5309181,20.1750388 86.0987315,20.7704425 86.0987315,21.8038032 C86.0987315,22.837164 86.5309181,23.4227263 87.3953041,23.5605077 L97.5910794,23.5605077 Z" id="Eva妈妈"></path>
                </g>
            </g>
        </g>
    </g>
</svg>