<?xml version="1.0" encoding="UTF-8"?>
<svg width="60px" height="60px" viewBox="0 0 60 60" version="1.1" xmlns="http://www.w3.org/2000/svg" xmlns:xlink="http://www.w3.org/1999/xlink">
    <!-- Generator: Sketch 46.2 (44496) - http://www.bohemiancoding.com/sketch -->
    <title>noun_1350667_cc</title>
    <desc>Created with Sketch.</desc>
    <defs></defs>
    <g id="Page-1" stroke="none" stroke-width="1" fill="none" fill-rule="evenodd">
        <g id="noun_1350667_cc" fill-rule="nonzero" fill="#8D9BAC">
            <g id="Group">
                <g id="Shape">
                    <path d="M30,60 C13.4314575,60 -7.10542736e-15,46.5685425 -7.10542736e-15,30 C-7.10542736e-15,13.4314575 13.4314575,0 30,0 C46.5685425,0 60,13.4314575 60,30 C60,46.5685425 46.5685425,60 30,60 Z M31.7178475,14.7325339 C30.7492396,13.7515421 29.1791725,13.7554855 28.2059335,14.7465054 L16.6209567,26.5431361 C14.7387258,28.4292911 17.5610742,31.2575234 19.4433051,29.3713685 L27.3035824,21.4879656 C27.6904965,21.0999131 28.0041524,21.2361568 28.0041524,21.7864666 L28.0041524,43.5365625 C28.0041524,44.6438549 28.890108,45.5414928 30.0001555,45.5414928 C31.1025176,45.5414928 31.9961586,44.6457827 31.9961586,43.5365625 L31.9961586,21.7864666 C31.9961586,21.2335566 32.3109966,21.1010987 32.6967286,21.4879656 L40.5570059,29.3713685 C42.4382388,31.2575234 45.2615852,28.4292911 43.3793543,26.5431361 L31.7178475,14.7325339 Z" transform="translate(30.000000, 30.000000) rotate(90.000000) translate(-30.000000, -30.000000) "></path>
                </g>
            </g>
        </g>
    </g>
</svg>