<?xml version="1.0" encoding="iso-8859-1"?>
<!-- Generator: Adobe Illustrator 19.0.0, SVG Export Plug-In . SVG Version: 6.00 Build 0)  -->
<svg version="1.1" id="Capa_1" xmlns="http://www.w3.org/2000/svg" xmlns:xlink="http://www.w3.org/1999/xlink" x="0px" y="0px"
	 viewBox="0 0 511.765 511.765" style="enable-background:new 0 0 511.765 511.765;" xml:space="preserve">
<polygon style="fill:#94C1FF;" points="280.63,351.213 230.919,351.213 6.03,232.31 16.493,212.94 98.925,161.327 358.775,115.352 
	487.654,205.693 505.52,232.31 "/>
<polygon style="fill:#5C9EFF;" points="280.63,335.22 230.919,335.22 12.753,219.871 6.03,232.31 230.919,351.213 280.63,351.213 
	505.52,232.31 497.594,220.507 "/>
<g>
	<polygon style="fill:#D7E9FF;" points="7.006,495.327 231.661,375.827 279.889,375.827 504.544,495.327 483.78,507.767 
		27.988,507.767 	"/>
	<polygon style="fill:#D7E9FF;" points="231.661,375.827 7.006,495.327 3.999,483.778 3.999,246.05 6.03,232.31 230.919,351.213 	
		"/>
</g>
<path style="fill:#FFFFFF;" d="M19.992,483.778V246.05l0.875-5.896L6.03,232.31L4,246.05v237.728l3.007,11.55l20.982,12.439h15.992
	c0,0-15.648-8.457-20.982-12.439C19.414,492.656,19.992,483.778,19.992,483.778z"/>
<polygon style="fill:#D7E9FF;" points="279.889,375.827 504.544,495.327 507.55,483.778 507.55,246.05 505.52,232.31 
	280.63,351.213 "/>
<path style="fill:#94C1FF;" d="M491.777,483.778V246.05l-0.875-5.896l14.837-7.844l2.03,13.74v237.728l-3.006,11.55l-20.983,12.439
	h-15.992c0,0,15.648-8.457,20.982-12.439C492.354,492.656,491.777,483.778,491.777,483.778z"/>
<polygon style="fill:#5C9EFF;" points="231.005,220.413 160.084,231.451 155.633,207.626 226.773,195.385 "/>
<polygon style="fill:#2287FF;" points="226.773,195.385 219.002,196.721 223.009,220.413 159.858,230.241 160.084,231.451 
	231.005,220.413 "/>
<polygon style="fill:#94C1FF;" points="163.629,207.626 226.999,196.721 226.773,195.385 155.633,207.626 160.084,231.451 
	167.854,230.241 "/>
<polygon style="fill:#5C9EFF;" points="125.858,204.581 105.866,200.423 91.951,121.662 128.575,99.031 148.004,209.219 "/>
<polygon style="fill:#94C1FF;" points="133.854,204.581 113.863,200.423 99.947,121.662 129.363,103.486 128.575,99.031 
	91.951,121.662 105.866,200.423 125.858,204.581 148.004,209.219 147.699,207.482 "/>
<path style="fill:#D7E9FF;" d="M354.714,92.316L340.72,12.829l-15.758,2.799c8.402,47.259-117.626,69.488-117.626,69.488
	l-70.843,12.557l-7.918,1.358l19.428,110.188l78.769-13.834c0,0,128.737-6.478,134.337,25.028l15.75-2.795L354.714,92.316z"/>
<polygon style="fill:#5C9EFF;" points="376.86,217.618 361.11,220.413 324.962,15.628 340.72,12.829 "/>
<polygon style="fill:#2287FF;" points="340.72,12.829 332.966,14.207 368.863,217.618 360.867,219.039 361.11,220.413 
	376.86,217.618 "/>
<polygon style="fill:#D7E9FF;" points="255.478,312.052 216.137,319.009 175.491,228.792 214.497,222.061 "/>
<polygon style="fill:#94C1FF;" points="214.497,222.061 207.086,223.341 247.482,312.052 215.543,317.697 216.137,319.009 
	255.478,312.052 "/>
<polygon style="fill:#FFFFFF;" points="183.488,228.792 215.082,223.341 214.497,222.061 175.491,228.792 216.137,319.009 
	223.539,317.697 "/>
<path style="fill:#5C9EFF;" d="M283.871,363.832c0,15.454-12.525,27.987-27.979,27.987c-15.462,0-27.995-12.533-27.995-27.987
	s12.533-27.987,27.995-27.987C271.346,335.845,283.871,348.378,283.871,363.832z"/>
<path style="fill:#94C1FF;" d="M267.878,363.832c0,6.622-5.364,11.995-11.994,11.995c-6.63,0-11.994-5.373-11.994-11.995
	s5.364-11.994,11.994-11.994S267.878,357.21,267.878,363.832z"/>
<g>
	<path style="fill:#116FFF;" d="M256.126,367.83c-2.21,0-4.037-1.788-4.037-3.998s1.749-3.998,3.951-3.998h0.086
		c2.202,0,3.998,1.788,3.998,3.998S258.328,367.83,256.126,367.83z"/>
	<path style="fill:#116FFF;" d="M483.78,511.765H27.988c-15.431,0-27.987-12.557-27.987-27.987V243.887
		c0-14.72,9.87-32.2,22.482-39.798l51.421-31.017c1.867-1.125,4.342-0.539,5.482,1.359c1.14,1.89,0.539,4.35-1.359,5.49
		l-51.422,31.017c-10.089,6.079-18.609,21.17-18.609,32.95v239.891c0,11.019,8.965,19.991,19.991,19.991h455.791
		c11.026,0,19.991-8.973,19.991-19.991V243.887c0-11.78-8.52-26.871-18.602-32.95c-1.896-1.14-2.498-3.6-1.358-5.49
		c1.148-1.902,3.64-2.483,5.482-1.359c12.393,7.473,22.474,25.324,22.474,39.798v239.891
		C511.767,499.208,499.21,511.765,483.78,511.765z"/>
	<path style="fill:#116FFF;" d="M483.78,487.776c-0.632,0-1.272-0.148-1.874-0.469l-183.947-97.572
		c-1.952-1.03-2.693-3.451-1.655-5.403c1.038-1.953,3.452-2.687,5.403-1.664l183.947,97.572c1.953,1.039,2.694,3.46,1.656,5.412
		C486.591,487.003,485.208,487.776,483.78,487.776z"/>
	<path style="fill:#116FFF;" d="M211.905,345.435c-0.633,0-1.273-0.148-1.875-0.469L26.114,247.421
		c-1.952-1.035-2.694-3.456-1.656-5.408s3.452-2.694,5.404-1.659l183.916,97.545c1.952,1.039,2.694,3.46,1.655,5.412
		C214.715,344.661,213.333,345.435,211.905,345.435z"/>
	<path style="fill:#116FFF;" d="M27.988,487.776c-1.429,0-2.812-0.772-3.53-2.124c-1.039-1.952-0.296-4.373,1.656-5.412
		l183.923-97.557c1.96-1.03,4.365-0.297,5.404,1.664c1.039,1.952,0.297,4.373-1.655,5.403L29.863,487.307
		C29.261,487.627,28.621,487.776,27.988,487.776z"/>
	<path style="fill:#116FFF;" d="M299.864,345.443c-1.43,0-2.812-0.773-3.53-2.124c-1.038-1.952-0.297-4.373,1.655-5.412
		l183.916-97.553c1.96-1.035,4.365-0.293,5.404,1.659c1.038,1.952,0.297,4.373-1.656,5.408l-183.916,97.553
		C301.137,345.294,300.496,345.443,299.864,345.443z"/>
	<path style="fill:#116FFF;" d="M255.884,395.818c-17.641,0-31.985-14.353-31.985-31.985c0-17.64,14.345-31.985,31.985-31.985
		s31.985,14.346,31.985,31.985C287.869,387.439,270.643,395.818,255.884,395.818z M255.884,339.843
		c-13.229,0-23.989,10.762-23.989,23.989c0,13.229,10.761,23.989,23.989,23.989c5.631,0,23.989-1.733,23.989-23.989
		C279.873,350.605,269.113,339.843,255.884,339.843z"/>
	<path style="fill:#116FFF;" d="M255.884,379.825c-8.816,0-15.993-7.177-15.993-15.993c0-8.824,7.176-15.992,15.993-15.992
		s15.992,7.168,15.992,15.992C271.876,376.451,261.826,379.825,255.884,379.825z M255.884,355.836c-4.412,0-7.996,3.584-7.996,7.996
		c0,4.404,3.584,7.997,7.996,7.997c2.983,0,7.996-1.039,7.996-7.997C263.88,359.42,260.296,355.836,255.884,355.836z"/>
	<path style="fill:#116FFF;" d="M255.884,343.841c-2.21,0-3.998-1.787-3.998-3.998v-3.998c0-2.21,1.788-3.998,3.998-3.998
		s3.998,1.788,3.998,3.998v3.998C259.882,342.054,258.094,343.841,255.884,343.841z"/>
	<path style="fill:#116FFF;" d="M255.884,395.818c-2.21,0-3.998-1.788-3.998-3.998v-3.998c0-2.21,1.788-3.998,3.998-3.998
		s3.998,1.788,3.998,3.998v3.998C259.882,394.029,258.094,395.818,255.884,395.818z"/>
	<path style="fill:#116FFF;" d="M243.89,347.059c-1.383,0-2.726-0.718-3.468-2.007l-1.999-3.467
		c-1.101-1.906-0.445-4.357,1.468-5.459c1.914-1.108,4.357-0.453,5.466,1.469l1.999,3.467c1.101,1.913,0.445,4.357-1.468,5.458
		C245.256,346.887,244.569,347.059,243.89,347.059z"/>
	<path style="fill:#116FFF;" d="M269.878,392.07c-1.383,0-2.726-0.719-3.468-2.007l-1.999-3.468
		c-1.102-1.904-0.445-4.357,1.468-5.458c1.905-1.108,4.357-0.453,5.467,1.468l1.999,3.468c1.101,1.913,0.445,4.357-1.469,5.458
		C271.244,391.898,270.557,392.07,269.878,392.07z"/>
	<path style="fill:#116FFF;" d="M235.113,355.836c-0.688,0-1.375-0.172-2.007-0.539l-3.452-1.999
		c-1.905-1.108-2.561-3.553-1.452-5.466c1.109-1.921,3.561-2.562,5.466-1.453l3.452,1.999c1.905,1.102,2.562,3.554,1.452,5.459
		C237.83,355.117,236.487,355.836,235.113,355.836z"/>
	<path style="fill:#116FFF;" d="M280.123,381.824c-0.688,0-1.375-0.172-2.007-0.539l-3.452-1.999
		c-1.905-1.109-2.562-3.553-1.452-5.467c1.109-1.92,3.561-2.561,5.466-1.452l3.452,1.999c1.905,1.102,2.561,3.553,1.452,5.459
		C282.841,381.106,281.497,381.824,280.123,381.824z"/>
	<path style="fill:#116FFF;" d="M231.91,367.83h-3.998c-2.21,0-3.998-1.788-3.998-3.998s1.788-3.998,3.998-3.998h3.998
		c2.21,0,3.999,1.788,3.999,3.998S234.12,367.83,231.91,367.83z"/>
	<path style="fill:#116FFF;" d="M283.887,367.83h-3.998c-2.21,0-3.998-1.788-3.998-3.998s1.788-3.998,3.998-3.998h3.998
		c2.21,0,3.998,1.788,3.998,3.998S286.097,367.83,283.887,367.83z"/>
	<path style="fill:#116FFF;" d="M231.661,381.817c-1.382,0-2.725-0.719-3.467-2.007c-1.101-1.914-0.438-4.357,1.476-5.459
		l3.468-1.991c1.89-1.101,4.35-0.452,5.458,1.476c1.101,1.914,0.438,4.357-1.476,5.459l-3.467,1.991
		C233.028,381.645,232.34,381.817,231.661,381.817z"/>
	<path style="fill:#116FFF;" d="M276.671,355.836c-1.382,0-2.725-0.719-3.467-2.007c-1.102-1.905-0.445-4.357,1.468-5.459
		l3.468-1.999c1.913-1.108,4.357-0.452,5.466,1.469c1.101,1.913,0.445,4.357-1.468,5.458l-3.468,1.999
		C278.038,355.664,277.351,355.836,276.671,355.836z"/>
	<path style="fill:#116FFF;" d="M241.906,392.054c-0.687,0-1.375-0.172-2.007-0.539c-1.905-1.108-2.561-3.553-1.453-5.466
		l1.999-3.452c1.109-1.921,3.569-2.561,5.467-1.452c1.905,1.101,2.561,3.554,1.452,5.458l-1.999,3.452
		C244.623,391.335,243.28,392.054,241.906,392.054z"/>
	<path style="fill:#116FFF;" d="M267.894,347.043c-0.679,0-1.366-0.172-1.999-0.539c-1.913-1.101-2.569-3.553-1.46-5.458
		l1.999-3.459c1.108-1.922,3.546-2.562,5.458-1.469c1.914,1.109,2.569,3.553,1.461,5.467l-1.999,3.459
		C270.612,346.325,269.269,347.043,267.894,347.043z"/>
	<path style="fill:#116FFF;" d="M356.908,200.875c-1.897,0-3.585-1.363-3.929-3.303L325.212,40.074
		c-0.383-2.175,1.069-4.248,3.24-4.631c2.108-0.387,4.24,1.062,4.631,3.241l27.769,157.498c0.383,2.175-1.07,4.248-3.241,4.63
		C357.376,200.856,357.142,200.875,356.908,200.875z"/>
	<path style="fill:#116FFF;" d="M361.078,224.497c-1.897,0-3.585-1.363-3.929-3.303c-3.6-20.413-81.79-24.165-130.206-21.729
		c-2.342,0.141-4.084-1.593-4.193-3.795c-0.117-2.202,1.585-4.08,3.788-4.193c13.533-0.684,132.479-5.669,138.483,28.327
		c0.383,2.175-1.069,4.248-3.241,4.63C361.546,224.478,361.312,224.497,361.078,224.497z"/>
	<path style="fill:#116FFF;" d="M207.305,89.215c-1.897,0-3.584-1.363-3.928-3.303c-0.383-2.175,1.069-4.248,3.24-4.631
		c33.945-5.993,120.679-29.323,114.425-64.83c-0.383-2.175,1.069-4.248,3.24-4.631c2.124-0.391,4.248,1.062,4.631,3.241
		c8.918,50.602-115.604,73.157-120.906,74.091C207.773,89.196,207.539,89.215,207.305,89.215z"/>
	<path style="fill:#116FFF;" d="M324.97,19.755c-1.898,0-3.585-1.363-3.928-3.303c-0.383-2.175,1.069-4.248,3.24-4.631l15.742-2.78
		c2.125-0.382,4.24,1.058,4.631,3.241c0.383,2.175-1.069,4.248-3.24,4.631l-15.743,2.78
		C325.439,19.736,325.204,19.755,324.97,19.755z"/>
	<path style="fill:#116FFF;" d="M376.821,221.725c-1.897,0-3.584-1.363-3.928-3.304L336.784,13.672
		c-0.383-2.175,1.07-4.248,3.24-4.63c2.125-0.382,4.24,1.058,4.631,3.241l36.109,204.75c0.382,2.175-1.07,4.248-3.241,4.631
		C377.289,221.706,377.055,221.725,376.821,221.725z"/>
	<path style="fill:#116FFF;" d="M361.078,224.497c-1.897,0-3.585-1.363-3.929-3.303c-0.382-2.175,1.07-4.248,3.241-4.631
		l15.743-2.772c2.116-0.406,4.24,1.058,4.631,3.241c0.382,2.175-1.07,4.248-3.241,4.631l-15.743,2.772
		C361.546,224.478,361.312,224.497,361.078,224.497z"/>
	<path style="fill:#116FFF;" d="M147.996,213.354c-0.812,0-1.617-0.25-2.295-0.723c-0.867-0.609-1.461-1.538-1.64-2.581
		L124.632,99.804c-0.382-2.175,1.07-4.248,3.241-4.631l78.745-13.892c2.116-0.39,4.24,1.062,4.631,3.241
		c0.383,2.175-1.07,4.248-3.241,4.631l-74.81,13.201l18.039,102.371l74.81-13.189c2.116-0.391,4.24,1.062,4.631,3.241
		c0.383,2.175-1.07,4.248-3.241,4.63l-78.745,13.885C148.457,213.335,148.23,213.354,147.996,213.354z"/>
	<path style="fill:#116FFF;" d="M147.996,213.354c-0.273,0-0.546-0.027-0.82-0.086l-42.152-8.809
		c-1.601-0.332-2.835-1.608-3.116-3.217l-13.884-78.745c-0.289-1.612,0.437-3.232,1.827-4.092l36.608-22.692
		c1.132-0.695,2.53-0.789,3.74-0.254c1.21,0.543,2.077,1.651,2.304,2.956l19.429,110.247c0.234,1.308-0.203,2.644-1.156,3.564
		C150.027,212.956,149.027,213.354,147.996,213.354z M109.311,197.185l33.727,7.048l-17.383-98.615l-29.291,18.156L109.311,197.185z
		"/>
	<path style="fill:#116FFF;" d="M223.969,183.719c-1.897,0-3.584-1.363-3.928-3.303l-13.885-78.753
		c-0.382-2.175,1.07-4.248,3.241-4.631c2.14-0.398,4.248,1.062,4.631,3.241l13.884,78.753c0.383,2.175-1.069,4.248-3.24,4.631
		C224.438,183.699,224.203,183.719,223.969,183.719z"/>
	<path style="fill:#116FFF;" d="M110.489,138.771c-1.897,0-3.584-1.363-3.928-3.304c-0.383-2.175,1.07-4.248,3.241-4.63l7.872-1.39
		c2.124-0.41,4.24,1.058,4.631,3.241c0.382,2.175-1.07,4.248-3.241,4.63l-7.871,1.391
		C110.958,138.752,110.724,138.771,110.489,138.771z"/>
	<path style="fill:#116FFF;" d="M118.814,186.023c-1.897,0-3.584-1.363-3.928-3.303c-0.383-2.175,1.07-4.248,3.241-4.631l7.872-1.39
		c2.116-0.406,4.24,1.058,4.631,3.241c0.382,2.174-1.07,4.248-3.241,4.63l-7.871,1.39
		C119.282,186.003,119.048,186.023,118.814,186.023z"/>
	<path style="fill:#116FFF;" d="M114.644,162.393c-1.897,0-3.584-1.363-3.928-3.303c-0.383-2.175,1.07-4.248,3.241-4.631l7.887-1.39
		c2.108-0.406,4.24,1.058,4.631,3.241c0.382,2.175-1.07,4.248-3.241,4.63l-7.887,1.391
		C115.113,162.373,114.878,162.393,114.644,162.393z"/>
	<path style="fill:#116FFF;" d="M135.743,97.782c-1.897,0-3.584-1.363-3.928-3.303c-0.383-2.175,1.07-4.248,3.241-4.631l15.742-2.78
		c2.108-0.383,4.24,1.062,4.631,3.241c0.383,2.174-1.07,4.248-3.24,4.63l-15.743,2.78C136.212,97.762,135.978,97.782,135.743,97.782
		z"/>
	<path style="fill:#116FFF;" d="M255.478,316.05c-1.515,0-2.967-0.867-3.639-2.343l-33.891-74.428
		c-0.914-2.007-0.031-4.381,1.983-5.294c2.022-0.91,4.381-0.023,5.294,1.983l33.89,74.427c0.914,2.007,0.031,4.381-1.982,5.295
		C256.595,315.941,256.032,316.05,255.478,316.05z"/>
	<path style="fill:#116FFF;" d="M215.543,321.695c-1.515,0-2.968-0.867-3.639-2.343l-33.251-73.139
		c-0.913-2.011-0.023-4.381,1.983-5.294c2.015-0.906,4.381-0.023,5.295,1.983l33.25,73.139c0.914,2.015,0.023,4.381-1.983,5.294
		C216.66,321.586,216.098,321.695,215.543,321.695z"/>
	<path style="fill:#116FFF;" d="M160.03,235.586c-1.897,0-3.584-1.362-3.928-3.303l-1.562-8.863
		c-0.382-2.175,1.07-4.248,3.241-4.631c2.132-0.395,4.248,1.062,4.631,3.241l1.562,8.863c0.383,2.175-1.07,4.248-3.24,4.63
		C160.498,235.566,160.264,235.586,160.03,235.586z"/>
	<path style="fill:#116FFF;" d="M160.03,235.586c-1.905,0-3.592-1.37-3.936-3.318c-0.375-2.175,1.085-4.244,3.264-4.619
		l70.921-12.252c2.108-0.363,4.24,1.077,4.623,3.26c0.375,2.175-1.086,4.244-3.264,4.619l-70.92,12.252
		C160.49,235.566,160.256,235.586,160.03,235.586z"/>
	<path style="fill:#116FFF;" d="M230.95,223.334c-1.898,0-3.584-1.362-3.928-3.303l-1.39-7.872c-0.382-2.175,1.07-4.248,3.241-4.63
		c2.132-0.394,4.248,1.062,4.63,3.241l1.39,7.871c0.383,2.175-1.07,4.248-3.241,4.631
		C231.419,223.314,231.184,223.334,230.95,223.334z"/>
	<path style="fill:#116FFF;" d="M406.027,111.018c-1.898,0-3.585-1.363-3.928-3.304c-0.383-2.175,1.069-4.248,3.24-4.63
		l86.617-15.274c2.123-0.378,4.24,1.058,4.63,3.241c0.383,2.175-1.069,4.248-3.24,4.631l-86.617,15.274
		C406.495,110.999,406.261,111.018,406.027,111.018z"/>
	<path style="fill:#116FFF;" d="M386.293,80.048c-0.797,0-1.593-0.234-2.296-0.722c-1.804-1.269-2.249-3.76-0.977-5.568
		l50.446-72.053c1.265-1.819,3.756-2.241,5.567-0.984c1.804,1.269,2.249,3.76,0.977,5.568l-50.446,72.053
		C388.792,79.454,387.55,80.048,386.293,80.048z"/>
	<path style="fill:#116FFF;" d="M470.13,197.33c-0.797,0-1.594-0.234-2.296-0.722l-72.046-50.454
		c-1.804-1.269-2.248-3.76-0.976-5.567c1.265-1.819,3.756-2.245,5.567-0.984l72.045,50.454c1.805,1.269,2.25,3.76,0.977,5.567
		C472.628,196.736,471.387,197.33,470.13,197.33z"/>
	<path style="fill:#116FFF;" d="M299.864,479.779h-87.96c-2.21,0-3.999-1.788-3.999-3.998s1.789-3.999,3.999-3.999h87.96
		c2.209,0,3.998,1.789,3.998,3.999S302.073,479.779,299.864,479.779z"/>
	<path style="fill:#116FFF;" d="M331.849,463.786h-151.93c-2.21,0-3.999-1.788-3.999-3.998s1.789-3.998,3.999-3.998h151.93
		c2.211,0,3.998,1.788,3.998,3.998S334.06,463.786,331.849,463.786z"/>
</g>
<g>
</g>
<g>
</g>
<g>
</g>
<g>
</g>
<g>
</g>
<g>
</g>
<g>
</g>
<g>
</g>
<g>
</g>
<g>
</g>
<g>
</g>
<g>
</g>
<g>
</g>
<g>
</g>
<g>
</g>
</svg>
