<?xml version="1.0" encoding="UTF-8"?>
<svg width="28px" height="19px" viewBox="0 0 28 19" version="1.1" xmlns="http://www.w3.org/2000/svg" xmlns:xlink="http://www.w3.org/1999/xlink">
    <g id="Page-1" stroke="none" stroke-width="1" fill="none" fill-rule="evenodd">
        <g id="iPhone-7-Plus" transform="translate(-335.000000, -443.000000)" fill="#ccc">
            <g id="ic_menu_36px" transform="translate(335.000000, 443.000000)">
                <g id="Group">
                    <path d="M0,17.5 C0,18.3284271 0.664521635,19 1.50540161,19 L26.4945984,19 C27.3260087,19 28,18.3342028 28,17.5 L28,17.5 C28,16.6715729 27.3354784,16 26.4945984,16 L1.50540161,16 C0.673991259,16 0,16.6657972 0,17.5 L0,17.5 Z M0,9.5 C0,10.3284271 0.664521635,11 1.50540161,11 L26.4945984,11 C27.3260087,11 28,10.3342028 28,9.5 L28,9.5 C28,8.67157288 27.3354784,8 26.4945984,8 L1.50540161,8 C0.673991259,8 0,8.66579723 0,9.5 L0,9.5 Z M1.50540161,0 C0.673991259,0 0,0.665797234 0,1.5 L0,1.5 C0,2.32842712 0.664521635,3 1.50540161,3 L26.4945984,3 C27.3260087,3 28,2.33420277 28,1.5 L28,1.5 C28,0.671572875 27.3354784,0 26.4945984,0 L1.50540161,0 Z" id="Shape"></path>
                </g>
            </g>
        </g>
    </g>
</svg>