<?xml version="1.0" encoding="UTF-8"?>
<svg width="23px" height="24px" viewBox="0 0 23 24" version="1.1" xmlns="http://www.w3.org/2000/svg" xmlns:xlink="http://www.w3.org/1999/xlink">
    <!-- Generator: Sketch 41.2 (35397) - http://www.bohemiancoding.com/sketch -->
    <title>shape</title>
    <desc>Created with Sketch.</desc>
    <defs></defs>
    <g id="Page-1" stroke="none" stroke-width="1" fill="none" fill-rule="evenodd">
        <g id="Desktop-Copy" transform="translate(-401.000000, -229.000000)">
            <g id="shape" transform="translate(402.000000, 230.000000)">
                <g id="Capa_1">
                    <g id="Group">
                        <path d="M14.45166,19.795616 L16.5630202,20.1297891 C16.9160588,20.186036 17.2785462,20.1041471 17.5680207,19.9006655 C17.8566363,19.6996654 18.0507646,19.3927887 18.104021,19.0519983 L18.4218417,17.0188367 C18.4862648,16.6118735 18.7508291,16.2603301 19.1339319,16.0750461 L21.0442919,15.1560702 C21.3638306,15.000564 21.6077794,14.7292552 21.7177282,14.4016994 C21.8293949,14.0741437 21.7976129,13.7168102 21.6335487,13.4099335 L20.6525994,11.5802534 C20.4558942,11.2179569 20.4558942,10.7828702 20.6525994,10.4197466 L21.6352666,8.59089371 C21.7984718,8.28484416 21.8302539,7.92751062 21.7194462,7.59912772 C21.6086384,7.2732263 21.3655485,7.00109035 21.0451509,6.84558409 L19.1356498,5.9257811 C18.7516881,5.74049705 18.4879828,5.3897808 18.4235597,4.98281761 L18.105739,2.94965598 C18.0524826,2.60886566 17.8583542,2.30281611 17.5697387,2.10098883 C17.2802642,1.89668008 16.9177768,1.81479114 16.5647381,1.87021093 L14.4542369,2.20521111 C14.0341982,2.27303831 13.6064288,2.13903824 13.3075055,1.84622326 L11.8042996,0.37966688 C11.5603507,0.144753168 11.2339403,0.0099259315 10.8920683,0 C10.5501963,0.0107530925 10.2229269,0.144753168 9.98069597,0.37966688 L8.47749,1.84622326 C8.17856676,2.13903824 7.75079729,2.27303831 7.33075859,2.20521111 L5.2202574,1.87021093 C4.86635977,1.81479114 4.50473136,1.89668008 4.21525684,2.10098883 C3.92664129,2.30281611 3.73251298,2.60886566 3.67925654,2.94965598 L3.36143585,4.98281761 C3.29615376,5.3897808 3.03330746,5.74049705 2.64848673,5.9257811 L0.739844634,6.84558409 C0.419447018,7.00109035 0.176357138,7.2732263 0.0655493837,7.59995488 C-0.0452583708,7.92751062 -0.0143352766,8.28567132 0.148869943,8.59172087 L1.13153716,10.4205737 C1.3282424,10.7836974 1.3282424,11.2179569 1.13153716,11.5810806 L0.149728918,13.4091063 C-0.0134763017,13.715983 -0.0452583708,14.0733165 0.0664083585,14.4008723 C0.176357138,14.728428 0.420305993,15.000564 0.739844634,15.1552431 L2.65020468,16.0742189 C3.03330746,16.259503 3.29701274,16.6110464 3.36229482,17.0180095 L3.68011551,19.0511712 C3.73337195,19.3919615 3.92750027,19.6988382 4.21611582,19.8998383 C4.50559034,20.1033199 4.86807772,20.186036 5.22111638,20.1289619 L7.33247654,19.7947889 C7.75251524,19.7269617 8.18028471,19.8609618 8.47920795,20.1554311 L9.98241392,21.6203331 C10.2237859,21.856074 10.5501963,21.9900741 10.8920683,22 C11.2339403,21.9900741 11.5603507,21.856074 11.8017226,21.6203331 L13.3049286,20.1554311 C13.6038519,19.8617889 14.0316213,19.7277888 14.45166,19.795616 Z" id="Shape" stroke="#FFFFFF" stroke-width="0.4" fill="#0097FF"></path>
                        <path d="M15.0131869,9.43438735 L12.7579418,9.10027698 C12.5908867,9.10027698 12.4238315,8.93322179 12.3403039,8.7661666 L11.3379727,6.76150434 C11.08739,6.34386637 10.5026968,6.34386637 10.252114,6.76150434 L9.2497829,8.7661666 C9.1662553,8.93322179 8.99920011,9.10027698 8.83214492,9.10027698 L6.57689988,9.43438735 C6.07573432,9.51791495 5.90867913,10.1026081 6.24278951,10.4367185 L7.8298138,12.0237428 C7.99686898,12.190798 7.99686898,12.3578531 7.99686898,12.5249083 L7.57923101,14.7801534 C7.49570342,15.2813189 7.99686898,15.6154293 8.41450695,15.4483741 L10.4191692,14.3625154 C10.5862244,14.2789878 10.8368072,14.2789878 11.0038624,14.3625154 L13.0085246,15.4483741 C13.4261626,15.6989569 13.9273282,15.2813189 13.8438006,14.7801534 L13.5096902,12.5249083 C13.5096902,12.3578531 13.5096902,12.1072704 13.6767454,12.0237428 L15.2637697,10.4367185 C15.6814076,10.1026081 15.5143525,9.51791495 15.0131869,9.43438735 Z" id="Shape" fill="#FFFFFF"></path>
                    </g>
                </g>
            </g>
        </g>
    </g>
</svg>