<?xml version="1.0" encoding="UTF-8"?>
<svg width="70px" height="70px" viewBox="0 0 70 70" version="1.1" xmlns="http://www.w3.org/2000/svg" xmlns:xlink="http://www.w3.org/1999/xlink">
    <!-- Generator: Sketch 46.2 (44496) - http://www.bohemiancoding.com/sketch -->
    <title>success</title>
    <desc>Created with Sketch.</desc>
    <defs></defs>
    <g id="Page-1" stroke="none" stroke-width="1" fill="none" fill-rule="evenodd">
        <g id="success" transform="translate(1.000000, 1.000000)" stroke="#FFFFFF" fill-rule="nonzero" fill="#45CB85">
            <path d="M34,0 C15.2529231,0 0,15.2516154 0,34 C0,52.7483846 15.2529231,68 34,68 C52.7470769,68 68,52.7483846 68,34 C68,15.2516154 52.7470769,0 34,0 Z M48.5256124,26.446796 L31.9667097,45.0755615 C31.5589468,45.5340361 30.9907694,45.7700005 30.4184523,45.7700005 C29.9641174,45.7700005 29.5077127,45.6209703 29.125823,45.3167005 L18.7765088,37.0372492 C17.884398,36.3241814 17.7395076,35.0212028 18.4536102,34.128057 C19.166678,33.2349111 20.4706916,33.0900207 21.3628024,33.8041234 L30.1773133,40.8551112 L45.4311675,23.6949134 C46.1887373,22.84006 47.4989604,22.7634751 48.3527788,23.5231147 C49.2076322,24.2837893 49.2852521,25.5919426 48.5256124,26.446796 Z" id="Shape"></path>
        </g>
    </g>
</svg>